<?xml version="1.0" encoding="us-ascii" standalone="no"?>
<svg xmlns="http://www.w3.org/2000/svg" xmlns:xlink="http://www.w3.org/1999/xlink"
    contentStyleType="text/css" height="1398px" preserveAspectRatio="none"
    style="width:743px;height:1398px;background:#FFFFFF;" version="1.1" viewBox="0 0 743 1398"
    width="743px" zoomAndPan="magnify">
    <defs />
    <g><!--class
        S-->
        <g id="elem_S">
            <rect codeLine="2" fill="#F1F1F1" height="83.2188" id="S" rx="2.5" ry="2.5"
                style="stroke:#181818;stroke-width:0.5;" width="135" x="316.08" y="7" />
            <ellipse cx="355.38" cy="23" fill="#ADD1B2" rx="11" ry="11"
                style="stroke:#181818;stroke-width:1.0;" />
            <path
                d="M358.1456,18.875 Q358.3019,18.6563 358.4894,18.5469 Q358.6769,18.4375 358.8956,18.4375 Q359.2706,18.4375 359.505,18.7031 Q359.7394,18.9531 359.7394,19.5625 L359.7394,21.0156 Q359.7394,21.625 359.505,21.8906 Q359.2706,22.1563 358.8956,22.1563 Q358.5519,22.1563 358.3488,21.9531 Q358.1456,21.7656 358.0363,21.25 Q357.9894,20.8906 357.8019,20.7031 Q357.4738,20.3281 356.8644,20.1094 Q356.255,19.8906 355.63,19.8906 Q354.8644,19.8906 354.2238,20.2188 Q353.5988,20.5469 353.0988,21.2969 Q352.6144,22.0469 352.6144,23.0781 L352.6144,24.1719 Q352.6144,25.4063 353.505,26.2344 Q354.3956,27.0469 355.9894,27.0469 Q356.9269,27.0469 357.5831,26.7969 Q357.9738,26.6406 358.3956,26.2031 Q358.6613,25.9375 358.8019,25.8594 Q358.9581,25.7813 359.1613,25.7813 Q359.4894,25.7813 359.7394,26.0469 Q360.005,26.2969 360.005,26.6406 Q360.005,26.9844 359.6613,27.3906 Q359.1613,27.9688 358.3644,28.2969 Q357.2863,28.75 355.9894,28.75 Q354.4738,28.75 353.2706,28.125 Q352.2863,27.625 351.5988,26.5625 Q350.9113,25.4844 350.9113,24.2031 L350.9113,23.0469 Q350.9113,21.7188 351.5206,20.5781 Q352.1456,19.4219 353.2394,18.8125 Q354.3331,18.1875 355.5675,18.1875 Q356.3019,18.1875 356.9425,18.3594 Q357.5988,18.5156 358.1456,18.875 Z "
                fill="#000000" />
            <text fill="#000000" font-family="sans-serif" font-size="14" lengthAdjust="spacing"
                textLength="49" x="374.78" y="28.7285">Student</text>
            <line style="stroke:#181818;stroke-width:0.5;" x1="317.08" x2="450.08" y1="39" y2="39" />
            <text fill="#000000" font-family="sans-serif" font-size="14" lengthAdjust="spacing"
                textLength="57" x="322.08" y="57.5332">uk&#269;o : Int</text>
            <text fill="#000000" font-family="sans-serif" font-size="14" lengthAdjust="spacing"
                textLength="123" x="322.08" y="75.1426">rok z&#225;pisu : Int[0..1]</text>
            <line style="stroke:#181818;stroke-width:0.5;" x1="317.08" x2="450.08" y1="82.2188"
                y2="82.2188" />
        </g><!--class
        SP-->
        <g id="elem_SP">
            <rect codeLine="43" fill="#F1F1F1" height="153.6563" id="SP" rx="2.5" ry="2.5"
                style="stroke:#181818;stroke-width:0.5;" width="321" x="19.08" y="312" />
            <ellipse cx="136.83" cy="328" fill="#ADD1B2" rx="11" ry="11"
                style="stroke:#181818;stroke-width:1.0;" />
            <path
                d="M139.5956,323.875 Q139.7519,323.6563 139.9394,323.5469 Q140.1269,323.4375 140.3456,323.4375 Q140.7206,323.4375 140.955,323.7031 Q141.1894,323.9531 141.1894,324.5625 L141.1894,326.0156 Q141.1894,326.625 140.955,326.8906 Q140.7206,327.1563 140.3456,327.1563 Q140.0019,327.1563 139.7987,326.9531 Q139.5956,326.7656 139.4862,326.25 Q139.4394,325.8906 139.2519,325.7031 Q138.9237,325.3281 138.3144,325.1094 Q137.705,324.8906 137.08,324.8906 Q136.3144,324.8906 135.6737,325.2188 Q135.0487,325.5469 134.5487,326.2969 Q134.0644,327.0469 134.0644,328.0781 L134.0644,329.1719 Q134.0644,330.4063 134.955,331.2344 Q135.8456,332.0469 137.4394,332.0469 Q138.3769,332.0469 139.0331,331.7969 Q139.4237,331.6406 139.8456,331.2031 Q140.1112,330.9375 140.2519,330.8594 Q140.4081,330.7813 140.6112,330.7813 Q140.9394,330.7813 141.1894,331.0469 Q141.455,331.2969 141.455,331.6406 Q141.455,331.9844 141.1112,332.3906 Q140.6112,332.9688 139.8144,333.2969 Q138.7362,333.75 137.4394,333.75 Q135.9237,333.75 134.7206,333.125 Q133.7362,332.625 133.0487,331.5625 Q132.3612,330.4844 132.3612,329.2031 L132.3612,328.0469 Q132.3612,326.7188 132.9706,325.5781 Q133.5956,324.4219 134.6894,323.8125 Q135.7831,323.1875 137.0175,323.1875 Q137.7519,323.1875 138.3925,323.3594 Q139.0487,323.5156 139.5956,323.875 Z "
                fill="#000000" />
            <text fill="#000000" font-family="sans-serif" font-size="14" lengthAdjust="spacing"
                textLength="77" x="157.33" y="333.7285">Studijn&#237; pl&#225;n</text>
            <line style="stroke:#181818;stroke-width:0.5;" x1="20.08" x2="339.08" y1="344" y2="344" />
            <text fill="#000000" font-family="sans-serif" font-size="14" lengthAdjust="spacing"
                textLength="72" x="25.08" y="362.5332">k&#243;d : String</text>
            <text fill="#000000" font-family="sans-serif" font-size="14" lengthAdjust="spacing"
                textLength="86" x="25.08" y="380.1426">n&#225;zev : String</text>
            <text fill="#000000" font-family="sans-serif" font-size="14" lengthAdjust="spacing"
                textLength="309" x="25.08" y="397.752">druh studia : {bakal&#225;&#345;sk&#253;,
                navazuj&#237;c&#237; magistersk&#253;}</text>
            <text fill="#000000" font-family="sans-serif" font-size="14" lengthAdjust="spacing"
                textLength="97" x="25.08" y="415.3613">platnost od : Int</text>
            <text fill="#000000" font-family="sans-serif" font-size="14" lengthAdjust="spacing"
                textLength="97" x="25.08" y="432.9707">platnost do : Int</text>
            <text fill="#000000" font-family="sans-serif" font-size="14" lengthAdjust="spacing"
                textLength="171" x="25.08" y="450.5801">minim&#225;ln&#237; po&#269;et kredit&#367;
                : Int</text>
            <line style="stroke:#181818;stroke-width:0.5;" x1="20.08" x2="339.08" y1="457.6563"
                y2="457.6563" />
        </g><!--class
        K-->
        <g id="elem_K">
            <rect codeLine="17" fill="#F1F1F1" height="65.6094" id="K" rx="2.5" ry="2.5"
                style="stroke:#181818;stroke-width:0.5;" width="93" x="30.08" y="168" />
            <ellipse cx="45.08" cy="184" fill="#ADD1B2" rx="11" ry="11"
                style="stroke:#181818;stroke-width:1.0;" />
            <path
                d="M47.8456,179.875 Q48.0019,179.6563 48.1894,179.5469 Q48.3769,179.4375 48.5956,179.4375 Q48.9706,179.4375 49.205,179.7031 Q49.4394,179.9531 49.4394,180.5625 L49.4394,182.0156 Q49.4394,182.625 49.205,182.8906 Q48.9706,183.1563 48.5956,183.1563 Q48.2519,183.1563 48.0488,182.9531 Q47.8456,182.7656 47.7363,182.25 Q47.6894,181.8906 47.5019,181.7031 Q47.1738,181.3281 46.5644,181.1094 Q45.955,180.8906 45.33,180.8906 Q44.5644,180.8906 43.9238,181.2188 Q43.2988,181.5469 42.7988,182.2969 Q42.3144,183.0469 42.3144,184.0781 L42.3144,185.1719 Q42.3144,186.4063 43.205,187.2344 Q44.0956,188.0469 45.6894,188.0469 Q46.6269,188.0469 47.2831,187.7969 Q47.6738,187.6406 48.0956,187.2031 Q48.3613,186.9375 48.5019,186.8594 Q48.6581,186.7813 48.8613,186.7813 Q49.1894,186.7813 49.4394,187.0469 Q49.705,187.2969 49.705,187.6406 Q49.705,187.9844 49.3613,188.3906 Q48.8613,188.9688 48.0644,189.2969 Q46.9863,189.75 45.6894,189.75 Q44.1738,189.75 42.9706,189.125 Q41.9863,188.625 41.2988,187.5625 Q40.6113,186.4844 40.6113,185.2031 L40.6113,184.0469 Q40.6113,182.7188 41.2206,181.5781 Q41.8456,180.4219 42.9394,179.8125 Q44.0331,179.1875 45.2675,179.1875 Q46.0019,179.1875 46.6425,179.3594 Q47.2988,179.5156 47.8456,179.875 Z "
                fill="#000000" />
            <text fill="#000000" font-family="sans-serif" font-size="14" lengthAdjust="spacing"
                textLength="61" x="59.08" y="189.7285">Koment&#225;&#345;</text>
            <line style="stroke:#181818;stroke-width:0.5;" x1="31.08" x2="122.08" y1="200" y2="200" />
            <text fill="#000000" font-family="sans-serif" font-size="14" lengthAdjust="spacing"
                textLength="71" x="36.08" y="218.5332">text : String</text>
            <line style="stroke:#181818;stroke-width:0.5;" x1="31.08" x2="122.08" y1="225.6094"
                y2="225.6094" />
        </g>
        <ellipse cx="160.58" cy="201" fill="#181818" rx="2" ry="2"
            style="stroke:#181818;stroke-width:1.0;" /><!--class
        H-->
        <g id="elem_H">
            <rect codeLine="21" fill="#F1F1F1" height="65.6094" id="H" rx="2.5" ry="2.5"
                style="stroke:#181818;stroke-width:0.5;" width="140" x="236.58" y="168" />
            <ellipse cx="270.03" cy="184" fill="#ADD1B2" rx="11" ry="11"
                style="stroke:#181818;stroke-width:1.0;" />
            <path
                d="M272.7956,179.875 Q272.9519,179.6563 273.1394,179.5469 Q273.3269,179.4375 273.5456,179.4375 Q273.9206,179.4375 274.155,179.7031 Q274.3894,179.9531 274.3894,180.5625 L274.3894,182.0156 Q274.3894,182.625 274.155,182.8906 Q273.9206,183.1563 273.5456,183.1563 Q273.2019,183.1563 272.9988,182.9531 Q272.7956,182.7656 272.6863,182.25 Q272.6394,181.8906 272.4519,181.7031 Q272.1238,181.3281 271.5144,181.1094 Q270.905,180.8906 270.28,180.8906 Q269.5144,180.8906 268.8738,181.2188 Q268.2488,181.5469 267.7488,182.2969 Q267.2644,183.0469 267.2644,184.0781 L267.2644,185.1719 Q267.2644,186.4063 268.155,187.2344 Q269.0456,188.0469 270.6394,188.0469 Q271.5769,188.0469 272.2331,187.7969 Q272.6238,187.6406 273.0456,187.2031 Q273.3113,186.9375 273.4519,186.8594 Q273.6081,186.7813 273.8113,186.7813 Q274.1394,186.7813 274.3894,187.0469 Q274.655,187.2969 274.655,187.6406 Q274.655,187.9844 274.3113,188.3906 Q273.8113,188.9688 273.0144,189.2969 Q271.9363,189.75 270.6394,189.75 Q269.1238,189.75 267.9206,189.125 Q266.9363,188.625 266.2488,187.5625 Q265.5613,186.4844 265.5613,185.2031 L265.5613,184.0469 Q265.5613,182.7188 266.1706,181.5781 Q266.7956,180.4219 267.8894,179.8125 Q268.9831,179.1875 270.2175,179.1875 Q270.9519,179.1875 271.5925,179.3594 Q272.2488,179.5156 272.7956,179.875 Z "
                fill="#000000" />
            <text fill="#000000" font-family="sans-serif" font-size="14" lengthAdjust="spacing"
                textLength="67" x="288.13" y="189.7285">Hodnocen&#237;</text>
            <line style="stroke:#181818;stroke-width:0.5;" x1="237.58" x2="375.58" y1="200" y2="200" />
            <text fill="#000000" font-family="sans-serif" font-size="14" lengthAdjust="spacing"
                textLength="128" x="242.58" y="218.5332">po&#269;et hv&#283;zdi&#269;ek : Int</text>
            <line style="stroke:#181818;stroke-width:0.5;" x1="237.58" x2="375.58" y1="225.6094"
                y2="225.6094" />
        </g>
        <ellipse cx="199.58" cy="201" fill="#181818" rx="2" ry="2"
            style="stroke:#181818;stroke-width:1.0;" /><!--class
        BP-->
        <g id="elem_BP">
            <rect codeLine="25" fill="#F1F1F1" height="48" id="BP" rx="2.5" ry="2.5"
                style="stroke:#181818;stroke-width:0.5;" width="88" x="530.58" y="177" />
            <ellipse cx="545.58" cy="193" fill="#ADD1B2" rx="11" ry="11"
                style="stroke:#181818;stroke-width:1.0;" />
            <path
                d="M548.3456,188.875 Q548.5019,188.6563 548.6894,188.5469 Q548.8769,188.4375 549.0956,188.4375 Q549.4706,188.4375 549.705,188.7031 Q549.9394,188.9531 549.9394,189.5625 L549.9394,191.0156 Q549.9394,191.625 549.705,191.8906 Q549.4706,192.1563 549.0956,192.1563 Q548.7519,192.1563 548.5488,191.9531 Q548.3456,191.7656 548.2363,191.25 Q548.1894,190.8906 548.0019,190.7031 Q547.6738,190.3281 547.0644,190.1094 Q546.455,189.8906 545.83,189.8906 Q545.0644,189.8906 544.4238,190.2188 Q543.7988,190.5469 543.2988,191.2969 Q542.8144,192.0469 542.8144,193.0781 L542.8144,194.1719 Q542.8144,195.4063 543.705,196.2344 Q544.5956,197.0469 546.1894,197.0469 Q547.1269,197.0469 547.7831,196.7969 Q548.1738,196.6406 548.5956,196.2031 Q548.8613,195.9375 549.0019,195.8594 Q549.1581,195.7813 549.3613,195.7813 Q549.6894,195.7813 549.9394,196.0469 Q550.205,196.2969 550.205,196.6406 Q550.205,196.9844 549.8613,197.3906 Q549.3613,197.9688 548.5644,198.2969 Q547.4863,198.75 546.1894,198.75 Q544.6738,198.75 543.4706,198.125 Q542.4863,197.625 541.7988,196.5625 Q541.1113,195.4844 541.1113,194.2031 L541.1113,193.0469 Q541.1113,191.7188 541.7206,190.5781 Q542.3456,189.4219 543.4394,188.8125 Q544.5331,188.1875 545.7675,188.1875 Q546.5019,188.1875 547.1425,188.3594 Q547.7988,188.5156 548.3456,188.875 Z "
                fill="#000000" />
            <text fill="#000000" font-family="sans-serif" font-size="14" lengthAdjust="spacing"
                textLength="56" x="559.58" y="198.7285">Blueprint</text>
            <line style="stroke:#181818;stroke-width:0.5;" x1="531.58" x2="617.58" y1="209" y2="209" />
            <line style="stroke:#181818;stroke-width:0.5;" x1="531.58" x2="617.58" y1="217" y2="217" />
        </g><!--class
        BPS-->
        <g id="elem_BPS">
            <rect codeLine="31" fill="#F1F1F1" height="65.6094" id="BPS" rx="2.5" ry="2.5"
                style="stroke:#181818;stroke-width:0.5;" width="150" x="518.58" y="356" />
            <ellipse cx="533.58" cy="372" fill="#ADD1B2" rx="11" ry="11"
                style="stroke:#181818;stroke-width:1.0;" />
            <path
                d="M536.3456,367.875 Q536.5019,367.6563 536.6894,367.5469 Q536.8769,367.4375 537.0956,367.4375 Q537.4706,367.4375 537.705,367.7031 Q537.9394,367.9531 537.9394,368.5625 L537.9394,370.0156 Q537.9394,370.625 537.705,370.8906 Q537.4706,371.1563 537.0956,371.1563 Q536.7519,371.1563 536.5488,370.9531 Q536.3456,370.7656 536.2363,370.25 Q536.1894,369.8906 536.0019,369.7031 Q535.6738,369.3281 535.0644,369.1094 Q534.455,368.8906 533.83,368.8906 Q533.0644,368.8906 532.4238,369.2188 Q531.7988,369.5469 531.2988,370.2969 Q530.8144,371.0469 530.8144,372.0781 L530.8144,373.1719 Q530.8144,374.4063 531.705,375.2344 Q532.5956,376.0469 534.1894,376.0469 Q535.1269,376.0469 535.7831,375.7969 Q536.1738,375.6406 536.5956,375.2031 Q536.8613,374.9375 537.0019,374.8594 Q537.1581,374.7813 537.3613,374.7813 Q537.6894,374.7813 537.9394,375.0469 Q538.205,375.2969 538.205,375.6406 Q538.205,375.9844 537.8613,376.3906 Q537.3613,376.9688 536.5644,377.2969 Q535.4863,377.75 534.1894,377.75 Q532.6738,377.75 531.4706,377.125 Q530.4863,376.625 529.7988,375.5625 Q529.1113,374.4844 529.1113,373.2031 L529.1113,372.0469 Q529.1113,370.7188 529.7206,369.5781 Q530.3456,368.4219 531.4394,367.8125 Q532.5331,367.1875 533.7675,367.1875 Q534.5019,367.1875 535.1425,367.3594 Q535.7988,367.5156 536.3456,367.875 Z "
                fill="#000000" />
            <text fill="#000000" font-family="sans-serif" font-size="14" lengthAdjust="spacing"
                textLength="118" x="547.58" y="377.7285">Skupina blueprintu</text>
            <line style="stroke:#181818;stroke-width:0.5;" x1="519.58" x2="667.58" y1="388" y2="388" />
            <text fill="#000000" font-family="sans-serif" font-size="14" lengthAdjust="spacing"
                textLength="67" x="524.58" y="406.5332">po&#345;ad&#237; : Int</text>
            <line style="stroke:#181818;stroke-width:0.5;" x1="519.58" x2="667.58" y1="413.6094"
                y2="413.6094" />
        </g><!--class
        PBPS-->
        <g id="elem_PBPS">
            <rect codeLine="37" fill="#F1F1F1" height="65.6094" id="PBPS" rx="2.5" ry="2.5"
                style="stroke:#181818;stroke-width:0.5;" width="224" x="495.58" y="675" />
            <ellipse cx="510.58" cy="691" fill="#ADD1B2" rx="11" ry="11"
                style="stroke:#181818;stroke-width:1.0;" />
            <path
                d="M513.3456,686.875 Q513.5019,686.6563 513.6894,686.5469 Q513.8769,686.4375 514.0956,686.4375 Q514.4706,686.4375 514.705,686.7031 Q514.9394,686.9531 514.9394,687.5625 L514.9394,689.0156 Q514.9394,689.625 514.705,689.8906 Q514.4706,690.1563 514.0956,690.1563 Q513.7519,690.1563 513.5488,689.9531 Q513.3456,689.7656 513.2363,689.25 Q513.1894,688.8906 513.0019,688.7031 Q512.6738,688.3281 512.0644,688.1094 Q511.455,687.8906 510.83,687.8906 Q510.0644,687.8906 509.4238,688.2188 Q508.7988,688.5469 508.2988,689.2969 Q507.8144,690.0469 507.8144,691.0781 L507.8144,692.1719 Q507.8144,693.4063 508.705,694.2344 Q509.5956,695.0469 511.1894,695.0469 Q512.1269,695.0469 512.7831,694.7969 Q513.1738,694.6406 513.5956,694.2031 Q513.8613,693.9375 514.0019,693.8594 Q514.1581,693.7813 514.3613,693.7813 Q514.6894,693.7813 514.9394,694.0469 Q515.205,694.2969 515.205,694.6406 Q515.205,694.9844 514.8613,695.3906 Q514.3613,695.9688 513.5644,696.2969 Q512.4863,696.75 511.1894,696.75 Q509.6738,696.75 508.4706,696.125 Q507.4863,695.625 506.7988,694.5625 Q506.1113,693.4844 506.1113,692.2031 L506.1113,691.0469 Q506.1113,689.7188 506.7206,688.5781 Q507.3456,687.4219 508.4394,686.8125 Q509.5331,686.1875 510.7675,686.1875 Q511.5019,686.1875 512.1425,686.3594 Q512.7988,686.5156 513.3456,686.875 Z "
                fill="#000000" />
            <text fill="#000000" font-family="sans-serif" font-size="14" lengthAdjust="spacing"
                textLength="192" x="524.58" y="696.7285">P&#345;edm&#283;t ve skupin&#283;
                blueprintu</text>
            <line style="stroke:#181818;stroke-width:0.5;" x1="496.58" x2="718.58" y1="707" y2="707" />
            <text fill="#000000" font-family="sans-serif" font-size="14" lengthAdjust="spacing"
                textLength="67" x="501.58" y="725.5332">po&#345;ad&#237; : Int</text>
            <line style="stroke:#181818;stroke-width:0.5;" x1="496.58" x2="718.58" y1="732.6094"
                y2="732.6094" />
        </g><!--class
        P-->
        <g id="elem_P">
            <rect codeLine="74" fill="#F1F1F1" height="153.6563" id="P" rx="2.5" ry="2.5"
                style="stroke:#181818;stroke-width:0.5;" width="294" x="272.58" y="950" />
            <ellipse cx="388.83" cy="966" fill="#ADD1B2" rx="11" ry="11"
                style="stroke:#181818;stroke-width:1.0;" />
            <path
                d="M391.5956,961.875 Q391.7519,961.6563 391.9394,961.5469 Q392.1269,961.4375 392.3456,961.4375 Q392.7206,961.4375 392.955,961.7031 Q393.1894,961.9531 393.1894,962.5625 L393.1894,964.0156 Q393.1894,964.625 392.955,964.8906 Q392.7206,965.1563 392.3456,965.1563 Q392.0019,965.1563 391.7988,964.9531 Q391.5956,964.7656 391.4863,964.25 Q391.4394,963.8906 391.2519,963.7031 Q390.9238,963.3281 390.3144,963.1094 Q389.705,962.8906 389.08,962.8906 Q388.3144,962.8906 387.6738,963.2188 Q387.0488,963.5469 386.5488,964.2969 Q386.0644,965.0469 386.0644,966.0781 L386.0644,967.1719 Q386.0644,968.4063 386.955,969.2344 Q387.8456,970.0469 389.4394,970.0469 Q390.3769,970.0469 391.0331,969.7969 Q391.4238,969.6406 391.8456,969.2031 Q392.1113,968.9375 392.2519,968.8594 Q392.4081,968.7813 392.6113,968.7813 Q392.9394,968.7813 393.1894,969.0469 Q393.455,969.2969 393.455,969.6406 Q393.455,969.9844 393.1113,970.3906 Q392.6113,970.9688 391.8144,971.2969 Q390.7363,971.75 389.4394,971.75 Q387.9238,971.75 386.7206,971.125 Q385.7363,970.625 385.0488,969.5625 Q384.3613,968.4844 384.3613,967.2031 L384.3613,966.0469 Q384.3613,964.7188 384.9706,963.5781 Q385.5956,962.4219 386.6894,961.8125 Q387.7831,961.1875 389.0175,961.1875 Q389.7519,961.1875 390.3925,961.3594 Q391.0488,961.5156 391.5956,961.875 Z "
                fill="#000000" />
            <text fill="#000000" font-family="sans-serif" font-size="14" lengthAdjust="spacing"
                textLength="53" x="409.33" y="971.7285">P&#345;edm&#283;t</text>
            <line style="stroke:#181818;stroke-width:0.5;" x1="273.58" x2="565.58" y1="982" y2="982" />
            <text fill="#000000" font-family="sans-serif" font-size="14" lengthAdjust="spacing"
                textLength="72" x="278.58" y="1000.5332">k&#243;d : String</text>
            <text fill="#000000" font-family="sans-serif" font-size="14" lengthAdjust="spacing"
                textLength="86" x="278.58" y="1018.1426">n&#225;zev : String</text>
            <text fill="#000000" font-family="sans-serif" font-size="14" lengthAdjust="spacing"
                textLength="169" x="278.58" y="1035.752">semestr : {zimn&#237;, letn&#237;, oba}</text>
            <text fill="#000000" font-family="sans-serif" font-size="14" lengthAdjust="spacing"
                textLength="109" x="278.58" y="1053.3613">po&#269;et kredit&#367; : Int</text>
            <text fill="#000000" font-family="sans-serif" font-size="14" lengthAdjust="spacing"
                textLength="118" x="278.58" y="1070.9707">garant: String[0..3]</text>
            <text fill="#000000" font-family="sans-serif" font-size="14" lengthAdjust="spacing"
                textLength="282" x="278.58" y="1088.5801">stav v&#253;uky : {vyu&#269;ov&#225;n,
                nevyu&#269;ov&#225;n, zru&#353;en}</text>
            <line style="stroke:#181818;stroke-width:0.5;" x1="273.58" x2="565.58" y1="1095.6563"
                y2="1095.6563" />
        </g><!--class
        STAT-->
        <g id="elem_STAT">
            <rect codeLine="101" fill="#F1F1F1" height="100.8281" id="STAT" rx="2.5" ry="2.5"
                style="stroke:#181818;stroke-width:0.5;" width="204" x="41.58" y="544" />
            <ellipse cx="110.83" cy="560" fill="#ADD1B2" rx="11" ry="11"
                style="stroke:#181818;stroke-width:1.0;" />
            <path
                d="M113.5956,555.875 Q113.7519,555.6563 113.9394,555.5469 Q114.1269,555.4375 114.3456,555.4375 Q114.7206,555.4375 114.955,555.7031 Q115.1894,555.9531 115.1894,556.5625 L115.1894,558.0156 Q115.1894,558.625 114.955,558.8906 Q114.7206,559.1563 114.3456,559.1563 Q114.0019,559.1563 113.7988,558.9531 Q113.5956,558.7656 113.4863,558.25 Q113.4394,557.8906 113.2519,557.7031 Q112.9238,557.3281 112.3144,557.1094 Q111.705,556.8906 111.08,556.8906 Q110.3144,556.8906 109.6738,557.2188 Q109.0488,557.5469 108.5488,558.2969 Q108.0644,559.0469 108.0644,560.0781 L108.0644,561.1719 Q108.0644,562.4063 108.955,563.2344 Q109.8456,564.0469 111.4394,564.0469 Q112.3769,564.0469 113.0331,563.7969 Q113.4238,563.6406 113.8456,563.2031 Q114.1113,562.9375 114.2519,562.8594 Q114.4081,562.7813 114.6113,562.7813 Q114.9394,562.7813 115.1894,563.0469 Q115.455,563.2969 115.455,563.6406 Q115.455,563.9844 115.1113,564.3906 Q114.6113,564.9688 113.8144,565.2969 Q112.7363,565.75 111.4394,565.75 Q109.9238,565.75 108.7206,565.125 Q107.7363,564.625 107.0488,563.5625 Q106.3613,562.4844 106.3613,561.2031 L106.3613,560.0469 Q106.3613,558.7188 106.9706,557.5781 Q107.5956,556.4219 108.6894,555.8125 Q109.7831,555.1875 111.0175,555.1875 Q111.7519,555.1875 112.3925,555.3594 Q113.0488,555.5156 113.5956,555.875 Z "
                fill="#000000" />
            <text fill="#000000" font-family="sans-serif" font-size="14" lengthAdjust="spacing"
                textLength="57" x="131.33" y="565.7285">Statistika</text>
            <line style="stroke:#181818;stroke-width:0.5;" x1="42.58" x2="244.58" y1="576" y2="576" />
            <text fill="#000000" font-family="sans-serif" font-size="14" lengthAdjust="spacing"
                textLength="125" x="47.58" y="594.5332">akademick&#253; rok : Int</text>
            <text fill="#000000" font-family="sans-serif" font-size="14" lengthAdjust="spacing"
                textLength="192" x="47.58" y="612.1426">po&#269;et zapsan&#253;ch student&#367; :
                Int</text>
            <text fill="#000000" font-family="sans-serif" font-size="14" lengthAdjust="spacing"
                textLength="135" x="47.58" y="629.752">po&#269;et absolvent&#367; : Int</text>
            <line style="stroke:#181818;stroke-width:0.5;" x1="42.58" x2="244.58" y1="636.8281"
                y2="636.8281" />
        </g><!--class
        G-->
        <g id="elem_G">
            <rect codeLine="58" fill="#F1F1F1" height="100.8281" id="G" rx="2.5" ry="2.5"
                style="stroke:#181818;stroke-width:0.5;" width="277" x="281.08" y="544" />
            <ellipse cx="389.83" cy="560" fill="#ADD1B2" rx="11" ry="11"
                style="stroke:#181818;stroke-width:1.0;" />
            <path
                d="M392.5956,555.875 Q392.7519,555.6563 392.9394,555.5469 Q393.1269,555.4375 393.3456,555.4375 Q393.7206,555.4375 393.955,555.7031 Q394.1894,555.9531 394.1894,556.5625 L394.1894,558.0156 Q394.1894,558.625 393.955,558.8906 Q393.7206,559.1563 393.3456,559.1563 Q393.0019,559.1563 392.7988,558.9531 Q392.5956,558.7656 392.4863,558.25 Q392.4394,557.8906 392.2519,557.7031 Q391.9238,557.3281 391.3144,557.1094 Q390.705,556.8906 390.08,556.8906 Q389.3144,556.8906 388.6738,557.2188 Q388.0488,557.5469 387.5488,558.2969 Q387.0644,559.0469 387.0644,560.0781 L387.0644,561.1719 Q387.0644,562.4063 387.955,563.2344 Q388.8456,564.0469 390.4394,564.0469 Q391.3769,564.0469 392.0331,563.7969 Q392.4238,563.6406 392.8456,563.2031 Q393.1113,562.9375 393.2519,562.8594 Q393.4081,562.7813 393.6113,562.7813 Q393.9394,562.7813 394.1894,563.0469 Q394.455,563.2969 394.455,563.6406 Q394.455,563.9844 394.1113,564.3906 Q393.6113,564.9688 392.8144,565.2969 Q391.7363,565.75 390.4394,565.75 Q388.9238,565.75 387.7206,565.125 Q386.7363,564.625 386.0488,563.5625 Q385.3613,562.4844 385.3613,561.2031 L385.3613,560.0469 Q385.3613,558.7188 385.9706,557.5781 Q386.5956,556.4219 387.6894,555.8125 Q388.7831,555.1875 390.0175,555.1875 Q390.7519,555.1875 391.3925,555.3594 Q392.0488,555.5156 392.5956,555.875 Z "
                fill="#000000" />
            <text fill="#000000" font-family="sans-serif" font-size="14" lengthAdjust="spacing"
                textLength="51" x="410.33" y="565.7285">Skupina</text>
            <line style="stroke:#181818;stroke-width:0.5;" x1="282.08" x2="557.08" y1="576" y2="576" />
            <text fill="#000000" font-family="sans-serif" font-size="14" lengthAdjust="spacing"
                textLength="86" x="287.08" y="594.5332">n&#225;zev : String</text>
            <text fill="#000000" font-family="sans-serif" font-size="14" lengthAdjust="spacing"
                textLength="265" x="287.08" y="612.1426">typ : {povinna, povinne volitelna,
                volitelna}</text>
            <text fill="#000000" font-family="sans-serif" font-size="14" lengthAdjust="spacing"
                textLength="98" x="287.08" y="629.752">limit kredit&#367; : Int</text>
            <line style="stroke:#181818;stroke-width:0.5;" x1="282.08" x2="557.08" y1="636.8281"
                y2="636.8281" />
        </g><!--class
        PVS-->
        <g id="elem_PVS">
            <rect codeLine="66" fill="#F1F1F1" height="100.8281" id="PVS" rx="2.5" ry="2.5"
                style="stroke:#181818;stroke-width:0.5;" width="217" x="311.08" y="771" />
            <ellipse cx="353.08" cy="787" fill="#ADD1B2" rx="11" ry="11"
                style="stroke:#181818;stroke-width:1.0;" />
            <path
                d="M355.8456,782.875 Q356.0019,782.6563 356.1894,782.5469 Q356.3769,782.4375 356.5956,782.4375 Q356.9706,782.4375 357.205,782.7031 Q357.4394,782.9531 357.4394,783.5625 L357.4394,785.0156 Q357.4394,785.625 357.205,785.8906 Q356.9706,786.1563 356.5956,786.1563 Q356.2519,786.1563 356.0488,785.9531 Q355.8456,785.7656 355.7363,785.25 Q355.6894,784.8906 355.5019,784.7031 Q355.1738,784.3281 354.5644,784.1094 Q353.955,783.8906 353.33,783.8906 Q352.5644,783.8906 351.9238,784.2188 Q351.2988,784.5469 350.7988,785.2969 Q350.3144,786.0469 350.3144,787.0781 L350.3144,788.1719 Q350.3144,789.4063 351.205,790.2344 Q352.0956,791.0469 353.6894,791.0469 Q354.6269,791.0469 355.2831,790.7969 Q355.6738,790.6406 356.0956,790.2031 Q356.3613,789.9375 356.5019,789.8594 Q356.6581,789.7813 356.8613,789.7813 Q357.1894,789.7813 357.4394,790.0469 Q357.705,790.2969 357.705,790.6406 Q357.705,790.9844 357.3613,791.3906 Q356.8613,791.9688 356.0644,792.2969 Q354.9863,792.75 353.6894,792.75 Q352.1738,792.75 350.9706,792.125 Q349.9863,791.625 349.2988,790.5625 Q348.6113,789.4844 348.6113,788.2031 L348.6113,787.0469 Q348.6113,785.7188 349.2206,784.5781 Q349.8456,783.4219 350.9394,782.8125 Q352.0331,782.1875 353.2675,782.1875 Q354.0019,782.1875 354.6425,782.3594 Q355.2988,782.5156 355.8456,782.875 Z "
                fill="#000000" />
            <text fill="#000000" font-family="sans-serif" font-size="14" lengthAdjust="spacing"
                textLength="125" x="373.08" y="792.7285">P&#345;edm&#283;t ve skupin&#283;</text>
            <line style="stroke:#181818;stroke-width:0.5;" x1="312.08" x2="527.08" y1="803" y2="803" />
            <text fill="#000000" font-family="sans-serif" font-size="14" lengthAdjust="spacing"
                textLength="67" x="317.08" y="821.5332">po&#345;ad&#237; : Int</text>
            <text fill="#000000" font-family="sans-serif" font-size="14" lengthAdjust="spacing"
                textLength="202" x="317.08" y="839.1426">doporu&#269;en&#253; ro&#269;n&#237;k min :
                Int[0..1]</text>
            <text fill="#000000" font-family="sans-serif" font-size="14" lengthAdjust="spacing"
                textLength="205" x="317.08" y="856.752">doporu&#269;en&#253; ro&#269;n&#237;k max :
                Int[0..1]</text>
            <line style="stroke:#181818;stroke-width:0.5;" x1="312.08" x2="527.08" y1="863.8281"
                y2="863.8281" />
        </g><!--class
        R-->
        <g id="elem_R">
            <rect codeLine="95" fill="#F1F1F1" height="65.6094" id="R" rx="2.5" ry="2.5"
                style="stroke:#181818;stroke-width:0.5;" width="303" x="268.08" y="1326" />
            <ellipse cx="387.33" cy="1342" fill="#ADD1B2" rx="11" ry="11"
                style="stroke:#181818;stroke-width:1.0;" />
            <path
                d="M390.0956,1337.875 Q390.2519,1337.6563 390.4394,1337.5469 Q390.6269,1337.4375 390.8456,1337.4375 Q391.2206,1337.4375 391.455,1337.7031 Q391.6894,1337.9531 391.6894,1338.5625 L391.6894,1340.0156 Q391.6894,1340.625 391.455,1340.8906 Q391.2206,1341.1563 390.8456,1341.1563 Q390.5019,1341.1563 390.2988,1340.9531 Q390.0956,1340.7656 389.9863,1340.25 Q389.9394,1339.8906 389.7519,1339.7031 Q389.4238,1339.3281 388.8144,1339.1094 Q388.205,1338.8906 387.58,1338.8906 Q386.8144,1338.8906 386.1738,1339.2188 Q385.5488,1339.5469 385.0488,1340.2969 Q384.5644,1341.0469 384.5644,1342.0781 L384.5644,1343.1719 Q384.5644,1344.4063 385.455,1345.2344 Q386.3456,1346.0469 387.9394,1346.0469 Q388.8769,1346.0469 389.5331,1345.7969 Q389.9238,1345.6406 390.3456,1345.2031 Q390.6113,1344.9375 390.7519,1344.8594 Q390.9081,1344.7813 391.1113,1344.7813 Q391.4394,1344.7813 391.6894,1345.0469 Q391.955,1345.2969 391.955,1345.6406 Q391.955,1345.9844 391.6113,1346.3906 Q391.1113,1346.9688 390.3144,1347.2969 Q389.2363,1347.75 387.9394,1347.75 Q386.4238,1347.75 385.2206,1347.125 Q384.2363,1346.625 383.5488,1345.5625 Q382.8613,1344.4844 382.8613,1343.2031 L382.8613,1342.0469 Q382.8613,1340.7188 383.4706,1339.5781 Q384.0956,1338.4219 385.1894,1337.8125 Q386.2831,1337.1875 387.5175,1337.1875 Q388.2519,1337.1875 388.8925,1337.3594 Q389.5488,1337.5156 390.0956,1337.875 Z "
                fill="#000000" />
            <text fill="#000000" font-family="sans-serif" font-size="14" lengthAdjust="spacing"
                textLength="56" x="407.83" y="1347.7285">Rekvizita</text>
            <line style="stroke:#181818;stroke-width:0.5;" x1="269.08" x2="570.08" y1="1358"
                y2="1358" />
            <text fill="#000000" font-family="sans-serif" font-size="14" lengthAdjust="spacing"
                textLength="291" x="274.08" y="1376.5332">druh : {prerekvizita, korekvizita,
                neslu&#269;itelnost}</text>
            <line style="stroke:#181818;stroke-width:0.5;" x1="269.08" x2="570.08" y1="1383.6094"
                y2="1383.6094" />
        </g><!--class
        SR-->
        <g id="elem_SR">
            <rect codeLine="87" fill="#F1F1F1" height="65.6094" id="SR" rx="2.5" ry="2.5"
                style="stroke:#181818;stroke-width:0.5;" width="128" x="355.58" y="1182" />
            <ellipse cx="370.58" cy="1198" fill="#ADD1B2" rx="11" ry="11"
                style="stroke:#181818;stroke-width:1.0;" />
            <path
                d="M373.3456,1193.875 Q373.5019,1193.6563 373.6894,1193.5469 Q373.8769,1193.4375 374.0956,1193.4375 Q374.4706,1193.4375 374.705,1193.7031 Q374.9394,1193.9531 374.9394,1194.5625 L374.9394,1196.0156 Q374.9394,1196.625 374.705,1196.8906 Q374.4706,1197.1563 374.0956,1197.1563 Q373.7519,1197.1563 373.5488,1196.9531 Q373.3456,1196.7656 373.2363,1196.25 Q373.1894,1195.8906 373.0019,1195.7031 Q372.6738,1195.3281 372.0644,1195.1094 Q371.455,1194.8906 370.83,1194.8906 Q370.0644,1194.8906 369.4238,1195.2188 Q368.7988,1195.5469 368.2988,1196.2969 Q367.8144,1197.0469 367.8144,1198.0781 L367.8144,1199.1719 Q367.8144,1200.4063 368.705,1201.2344 Q369.5956,1202.0469 371.1894,1202.0469 Q372.1269,1202.0469 372.7831,1201.7969 Q373.1738,1201.6406 373.5956,1201.2031 Q373.8613,1200.9375 374.0019,1200.8594 Q374.1581,1200.7813 374.3613,1200.7813 Q374.6894,1200.7813 374.9394,1201.0469 Q375.205,1201.2969 375.205,1201.6406 Q375.205,1201.9844 374.8613,1202.3906 Q374.3613,1202.9688 373.5644,1203.2969 Q372.4863,1203.75 371.1894,1203.75 Q369.6738,1203.75 368.4706,1203.125 Q367.4863,1202.625 366.7988,1201.5625 Q366.1113,1200.4844 366.1113,1199.2031 L366.1113,1198.0469 Q366.1113,1196.7188 366.7206,1195.5781 Q367.3456,1194.4219 368.4394,1193.8125 Q369.5331,1193.1875 370.7675,1193.1875 Q371.5019,1193.1875 372.1425,1193.3594 Q372.7988,1193.5156 373.3456,1193.875 Z "
                fill="#000000" />
            <text fill="#000000" font-family="sans-serif" font-size="14" lengthAdjust="spacing"
                textLength="96" x="384.58" y="1203.7285">Slo&#382;it&#225; rekvizita</text>
            <line style="stroke:#181818;stroke-width:0.5;" x1="356.58" x2="482.58" y1="1214"
                y2="1214" />
            <text fill="#000000" font-family="sans-serif" font-size="14" lengthAdjust="spacing"
                textLength="98" x="361.58" y="1232.5332">typ : {AND, OR}</text>
            <line style="stroke:#181818;stroke-width:0.5;" x1="356.58" x2="482.58" y1="1239.6094"
                y2="1239.6094" />
        </g><!--link
        S to apoint6-->
        <g id="link_S_apoint6">
            <path
                d="M316.06,59.55 C275.05,68.87 224.27,86.6 190.58,120 C166.14,144.23 161.36,190.25 160.68,198.66 "
                fill="none" id="S-apoint6" style="stroke:#181818;stroke-width:1.0;" />
            <text fill="#000000" font-family="sans-serif" font-size="13" lengthAdjust="spacing"
                textLength="60" x="191.58" y="134.4951">komentuje</text>
            <text fill="#000000" font-family="sans-serif" font-size="13" lengthAdjust="spacing"
                textLength="20" x="288.0658" y="57.3665">0..*</text>
        </g><!--link
        apoint6 to SP-->
        <g id="link_apoint6_SP">
            <path d="M160.7,203.19 C161.57,211.73 166.3802,258.7911 171.1902,305.8711 " fill="none"
                id="apoint6-to-SP" style="stroke:#181818;stroke-width:1.0;" />
            <polygon fill="#181818"
                points="171.8,311.84,174.8645,302.4801,171.2918,306.8659,166.906,303.2932,171.8,311.84"
                style="stroke:#181818;stroke-width:1.0;" />
            <text fill="#000000" font-family="sans-serif" font-size="13" lengthAdjust="spacing"
                textLength="20" x="150.1053" y="301.2514">0..*</text>
        </g><!--link
        S to apoint13-->
        <g id="link_S_apoint13">
            <path
                d="M327.28,90.07 C306.34,105.14 282.39,122.37 260.58,138 C241.94,151.37 234.1,151.11 218.58,168 C208.96,178.47 201.84,194.58 200.03,198.9 "
                fill="none" id="S-apoint13" style="stroke:#181818;stroke-width:1.0;" />
            <text fill="#000000" font-family="sans-serif" font-size="13" lengthAdjust="spacing"
                textLength="42" x="284.58" y="134.4951">hodnot&#237;</text>
            <text fill="#000000" font-family="sans-serif" font-size="13" lengthAdjust="spacing"
                textLength="20" x="296.2991" y="111.7861">0..*</text>
        </g><!--link
        apoint13 to SP-->
        <g id="link_apoint13_SP">
            <path d="M199.45,203.19 C198.53,211.73 193.4712,258.7944 188.4112,305.8744 " fill="none"
                id="apoint13-to-SP" style="stroke:#181818;stroke-width:1.0;" />
            <polygon fill="#181818"
                points="187.77,311.84,192.7088,303.319,188.3043,306.8686,184.7547,302.4641,187.77,311.84"
                style="stroke:#181818;stroke-width:1.0;" />
            <text fill="#000000" font-family="sans-serif" font-size="13" lengthAdjust="spacing"
                textLength="20" x="189.5037" y="301.2514">0..*</text>
        </g><!--link
        K to apoint6-->
        <g id="link_K_apoint6">
            <path d="M123.17,201 C134.96,201 146.75,201 158.53,201 " fill="none" id="K-apoint6"
                style="stroke:#181818;stroke-width:1.0;stroke-dasharray:7.0,7.0;" />
        </g><!--link
        apoint13 to H-->
        <g id="link_apoint13_H">
            <path d="M201.67,201 C213.28,201 224.89,201 236.5,201 " fill="none" id="apoint13-H"
                style="stroke:#181818;stroke-width:1.0;stroke-dasharray:7.0,7.0;" />
        </g><!--link
        S to BP-->
        <g id="link_S_BP">
            <path codeLine="13"
                d="M435.02,90.03 C470.37,117.89 511.3373,150.1665 540.6273,173.2465 " fill="none"
                id="S-to-BP" style="stroke:#181818;stroke-width:1.0;" />
            <polygon fill="#181818"
                points="545.34,176.96,540.7466,168.2479,541.4127,173.8654,535.7952,174.5315,545.34,176.96"
                style="stroke:#181818;stroke-width:1.0;" />
            <text fill="#000000" font-family="sans-serif" font-size="13" lengthAdjust="spacing"
                textLength="41" x="490.58" y="134.4951">pl&#225;nuje</text>
            <text fill="#000000" font-family="sans-serif" font-size="13" lengthAdjust="spacing"
                textLength="7" x="435.9601" y="111.7395">1</text>
            <text fill="#000000" font-family="sans-serif" font-size="13" lengthAdjust="spacing"
                textLength="7" x="529.9504" y="166.2899">1</text>
        </g><!--link
        S to SP-->
        <g id="link_S_SP">
            <path codeLine="15"
                d="M397.37,90.09 C408.13,129.19 417.75,188.9 394.58,234 C378.84,264.63 358.6088,286.8498 331.1688,308.1598 "
                fill="none" id="S-to-SP" style="stroke:#181818;stroke-width:1.0;" />
            <polygon fill="#181818"
                points="326.43,311.84,335.9917,309.4789,330.379,308.7732,331.0848,303.1605,326.43,311.84"
                style="stroke:#181818;stroke-width:1.0;" />
            <text fill="#000000" font-family="sans-serif" font-size="13" lengthAdjust="spacing"
                textLength="28" x="409.58" y="206.4951">zvolil</text>
            <text fill="#000000" font-family="sans-serif" font-size="13" lengthAdjust="spacing"
                textLength="20" x="377.9977" y="111.8095">0..*</text>
            <text fill="#000000" font-family="sans-serif" font-size="13" lengthAdjust="spacing"
                textLength="22" x="317.3782" y="301.2514">0..1</text>
        </g><!--link
        BP to BPS-->
        <g id="link_BP_BPS">
            <path codeLine="29"
                d="M576.95,225.18 C580.31,258.1 585.8697,312.5411 589.6797,349.8011 " fill="none"
                id="BP-to-BPS" style="stroke:#181818;stroke-width:1.0;" />
            <polygon fill="#181818"
                points="590.29,355.77,593.3537,346.4098,589.7814,350.7959,585.3952,347.2236,590.29,355.77"
                style="stroke:#181818;stroke-width:1.0;" />
            <text fill="#000000" font-family="sans-serif" font-size="13" lengthAdjust="spacing"
                textLength="55" x="582.58" y="278.4951">sest&#225;v&#225; z</text>
            <text fill="#000000" font-family="sans-serif" font-size="13" lengthAdjust="spacing"
                textLength="7" x="569.6746" y="246.5618">1</text>
            <text fill="#000000" font-family="sans-serif" font-size="13" lengthAdjust="spacing"
                textLength="20" x="567.6735" y="345.221">1..*</text>
        </g><!--reverse
        link BPS to PBPS-->
        <g id="link_BPS_PBPS">
            <path codeLine="35"
                d="M595.5288,434.1283 C598.2088,494.8883 603.47,613.95 606.16,674.77 " fill="none"
                id="BPS-backto-PBPS" style="stroke:#181818;stroke-width:1.0;" />
            <polygon fill="#181818"
                points="595,422.14,591.2683,428.3104,595.5288,434.1283,599.2605,427.9579,595,422.14"
                style="stroke:#181818;stroke-width:1.0;" />
            <text fill="#000000" font-family="sans-serif" font-size="13" lengthAdjust="spacing"
                textLength="52" x="599.58" y="510.4951">obsahuje</text>
            <text fill="#000000" font-family="sans-serif" font-size="13" lengthAdjust="spacing"
                textLength="7" x="587.6295" y="443.0293">1</text>
            <text fill="#000000" font-family="sans-serif" font-size="13" lengthAdjust="spacing"
                textLength="20" x="583.9117" y="664.221">0..*</text>
        </g><!--link
        PBPS to P-->
        <g id="link_PBPS_P">
            <path codeLine="41"
                d="M599.15,741.03 C586.63,784.53 560.03,863.37 518.58,920 C511.22,930.06 506.9208,935.6482 498.4608,945.4482 "
                fill="none" id="PBPS-to-P" style="stroke:#181818;stroke-width:1.0;" />
            <polygon fill="#181818"
                points="494.54,949.99,503.449,945.7912,497.8073,946.2052,497.3933,940.5635,494.54,949.99"
                style="stroke:#181818;stroke-width:1.0;" />
            <text fill="#000000" font-family="sans-serif" font-size="13" lengthAdjust="spacing"
                textLength="89" x="589.58" y="826.9951">detail p&#345;edm&#283;tu</text>
            <text fill="#000000" font-family="sans-serif" font-size="13" lengthAdjust="spacing"
                textLength="20" x="575.752" y="762.1584">0..*</text>
            <text fill="#000000" font-family="sans-serif" font-size="13" lengthAdjust="spacing"
                textLength="7" x="494.5743" y="939.1512">1</text>
        </g><!--link
        SP to STAT-->
        <g id="link_SP_STAT">
            <path codeLine="52"
                d="M166.12,466.07 C161.53,492.03 157.5546,514.4716 153.4246,537.8316 " fill="none"
                id="SP-to-STAT" style="stroke:#181818;stroke-width:1.0;" />
            <polygon fill="#181818"
                points="152.38,543.74,157.8858,535.5738,153.2505,538.8164,150.008,534.1811,152.38,543.74"
                style="stroke:#181818;stroke-width:1.0;" />
            <text fill="#000000" font-family="sans-serif" font-size="13" lengthAdjust="spacing"
                textLength="75" x="161.58" y="510.4951">m&#225; statistiku</text>
            <text fill="#000000" font-family="sans-serif" font-size="13" lengthAdjust="spacing"
                textLength="7" x="157.6095" y="487.1726">1</text>
            <text fill="#000000" font-family="sans-serif" font-size="13" lengthAdjust="spacing"
                textLength="20" x="132.2113" y="533.0088">0..*</text>
        </g><!--link
        SP to P-->
        <g id="link_SP_P">
            <path codeLine="54"
                d="M78.83,466 C56.44,488.42 35.76,514.86 23.58,544 C6.27,585.42 6,603.7 23.58,645 C79.06,775.36 198.5259,879.2191 293.1959,946.3591 "
                fill="none" id="SP-to-P" style="stroke:#181818;stroke-width:1.0;" />
            <polygon fill="#181818"
                points="298.09,949.83,293.0627,941.3608,294.0115,946.9376,288.4348,947.8864,298.09,949.83"
                style="stroke:#181818;stroke-width:1.0;" />
            <text fill="#000000" font-family="sans-serif" font-size="13" lengthAdjust="spacing"
                textLength="142" x="78.58" y="713.4951">doporu&#269;en&#253; ke st&#225;tnic&#237;m</text>
            <text fill="#000000" font-family="sans-serif" font-size="13" lengthAdjust="spacing"
                textLength="20" x="48.9663" y="487.0964">0..*</text>
            <text fill="#000000" font-family="sans-serif" font-size="13" lengthAdjust="spacing"
                textLength="20" x="265.5574" y="939.2405">0..*</text>
        </g><!--reverse
        link SP to G-->
        <g id="link_SP_G">
            <path codeLine="56"
                d="M278.4431,473.8301 C309.0631,499.7901 333.35,520.38 360.89,543.74 " fill="none"
                id="SP-backto-G" style="stroke:#181818;stroke-width:1.0;" />
            <polygon fill="#181818"
                points="269.29,466.07,271.2799,473.0011,278.4431,473.8301,276.4533,466.899,269.29,466.07"
                style="stroke:#181818;stroke-width:1.0;" />
            <text fill="#000000" font-family="sans-serif" font-size="13" lengthAdjust="spacing"
                textLength="55" x="321.58" y="510.4951">sest&#225;v&#225; z</text>
            <text fill="#000000" font-family="sans-serif" font-size="13" lengthAdjust="spacing"
                textLength="7" x="269.9681" y="487.1726">1</text>
            <text fill="#000000" font-family="sans-serif" font-size="13" lengthAdjust="spacing"
                textLength="20" x="331.2305" y="533.0088">1..*</text>
        </g><!--reverse
        link G to PVS-->
        <g id="link_G_PVS">
            <path codeLine="64" d="M419.58,657.16 C419.58,694.56 419.58,733.6 419.58,770.97 "
                fill="none" id="G-backto-PVS" style="stroke:#181818;stroke-width:1.0;" />
            <polygon fill="#181818"
                points="419.58,645.16,415.58,651.16,419.58,657.16,423.58,651.16,419.58,645.16"
                style="stroke:#181818;stroke-width:1.0;" />
            <text fill="#000000" font-family="sans-serif" font-size="13" lengthAdjust="spacing"
                textLength="52" x="420.58" y="713.4951">obsahuje</text>
            <text fill="#000000" font-family="sans-serif" font-size="13" lengthAdjust="spacing"
                textLength="7" x="412.1316" y="666.2045">1</text>
            <text fill="#000000" font-family="sans-serif" font-size="13" lengthAdjust="spacing"
                textLength="20" x="398.1738" y="760.2711">1..*</text>
        </g><!--link
        PVS to P-->
        <g id="link_PVS_P">
            <path codeLine="72" d="M419.58,872.02 C419.58,895.43 419.58,917.91 419.58,943.97 "
                fill="none" id="PVS-to-P" style="stroke:#181818;stroke-width:1.0;" />
            <polygon fill="#181818"
                points="419.58,949.97,423.58,940.97,419.58,944.97,415.58,940.97,419.58,949.97"
                style="stroke:#181818;stroke-width:1.0;" />
            <text fill="#000000" font-family="sans-serif" font-size="13" lengthAdjust="spacing"
                textLength="89" x="420.58" y="916.4951">detail p&#345;edm&#283;tu</text>
            <text fill="#000000" font-family="sans-serif" font-size="13" lengthAdjust="spacing"
                textLength="20" x="398.2363" y="893.4139">0..*</text>
            <text fill="#000000" font-family="sans-serif" font-size="13" lengthAdjust="spacing"
                textLength="7" x="412.2355" y="939.1292">1</text>
        </g><!--link
        P to R-->
        <g id="link_P_R">
            <path codeLine="83"
                d="M272.23,1096.04 C207.62,1135.85 153.89,1189.67 190.58,1248 C213.65,1284.68 247.2175,1307.0881 286.6275,1323.6281 "
                fill="none" id="P-to-R" style="stroke:#181818;stroke-width:1.0;" />
            <polygon fill="#181818"
                points="292.16,1325.95,285.4092,1318.7788,287.5496,1324.0151,282.3133,1326.1554,292.16,1325.95"
                style="stroke:#181818;stroke-width:1.0;" />
            <text fill="#000000" font-family="sans-serif" font-size="13" lengthAdjust="spacing"
                textLength="146" x="191.58" y="1220.4951">m&#225; jednoduchou rekvizitu</text>
            <text fill="#000000" font-family="sans-serif" font-size="13" lengthAdjust="spacing"
                textLength="20" x="244.6084" y="1096.5086">1..*</text>
            <text fill="#000000" font-family="sans-serif" font-size="13" lengthAdjust="spacing"
                textLength="20" x="243.8171" y="1315.0551">0..*</text>
        </g><!--link
        R to P-->
        <g id="link_R_P">
            <path codeLine="99"
                d="M528.1,1326 C564.92,1309.18 601.74,1284.26 621.58,1248 C650.95,1194.33 615.1268,1146.9943 562.7968,1107.6743 "
                fill="none" id="R-to-P" style="stroke:#181818;stroke-width:1.0;" />
            <polygon fill="#181818"
                points="558,1104.07,562.7924,1112.6742,561.9973,1107.0735,567.598,1106.2785,558,1104.07"
                style="stroke:#181818;stroke-width:1.0;" />
            <text fill="#000000" font-family="sans-serif" font-size="13" lengthAdjust="spacing"
                textLength="104" x="631.58" y="1220.4951">odkaz na p&#345;edm&#283;t</text>
            <text fill="#000000" font-family="sans-serif" font-size="13" lengthAdjust="spacing"
                textLength="20" x="528.4198" y="1315.1154">0..*</text>
            <text fill="#000000" font-family="sans-serif" font-size="13" lengthAdjust="spacing"
                textLength="7" x="563.0163" y="1125.1726">1</text>
        </g><!--link
        P to SR-->
        <g id="link_P_SR">
            <path codeLine="85" d="M419.58,1104.19 C419.58,1131.28 419.58,1154.33 419.58,1175.75 "
                fill="none" id="P-to-SR" style="stroke:#181818;stroke-width:1.0;" />
            <polygon fill="#181818"
                points="419.58,1181.75,423.58,1172.75,419.58,1176.75,415.58,1172.75,419.58,1181.75"
                style="stroke:#181818;stroke-width:1.0;" />
            <text fill="#000000" font-family="sans-serif" font-size="13" lengthAdjust="spacing"
                textLength="118" x="420.58" y="1148.4951">m&#225; slo&#382;itou rekvizitu</text>
            <text fill="#000000" font-family="sans-serif" font-size="13" lengthAdjust="spacing"
                textLength="20" x="398.7206" y="1125.036">1..*</text>
            <text fill="#000000" font-family="sans-serif" font-size="13" lengthAdjust="spacing"
                textLength="22" x="395.4144" y="1171.1971">0..1</text>
        </g><!--link
        SR to SR-->
        <g id="link_SR_SR">
            <path codeLine="91"
                d="M483.85,1201.52 C503.34,1201.86 518.58,1206.35 518.58,1215 C518.58,1223.65 509.3391,1228.0353 489.8491,1228.3753 "
                fill="none" id="SR-to-SR" style="stroke:#181818;stroke-width:1.0;" />
            <polygon fill="#181818"
                points="483.85,1228.48,492.9184,1232.3224,488.8492,1228.3928,492.7789,1224.3236,483.85,1228.48"
                style="stroke:#181818;stroke-width:1.0;" />
            <text fill="#000000" font-family="sans-serif" font-size="13" lengthAdjust="spacing"
                textLength="90" x="524.58" y="1220.4951">m&#225; podrekvizitu</text>
            <text fill="#000000" font-family="sans-serif" font-size="13" lengthAdjust="spacing"
                textLength="20" x="491.5091" y="1196.8383">0..*</text>
            <text fill="#000000" font-family="sans-serif" font-size="13" lengthAdjust="spacing"
                textLength="20" x="491.5091" y="1226.5785">0..*</text>
        </g><!--link
        SR to R-->
        <g id="link_SR_R">
            <path codeLine="93" d="M419.58,1248.22 C419.58,1271.46 419.58,1296.7 419.58,1319.91 "
                fill="none" id="SR-to-R" style="stroke:#181818;stroke-width:1.0;" />
            <polygon fill="#181818"
                points="419.58,1325.91,423.58,1316.91,419.58,1320.91,415.58,1316.91,419.58,1325.91"
                style="stroke:#181818;stroke-width:1.0;" />
            <text fill="#000000" font-family="sans-serif" font-size="13" lengthAdjust="spacing"
                textLength="117" x="420.58" y="1292.4951">jednoduch&#225; rekvizita</text>
            <text fill="#000000" font-family="sans-serif" font-size="13" lengthAdjust="spacing"
                textLength="20" x="397.7988" y="1269.1235">0..*</text>
            <text fill="#000000" font-family="sans-serif" font-size="13" lengthAdjust="spacing"
                textLength="20" x="397.5175" y="1315.0068">0..*</text>
        </g><!--SRC=[bLMxRjim5Dtr5OIdDh2D1jqw58XH82a2j8OLP2awq1OHqwH8GII5H84_8HyGPF8761qwfuli_-hbGpATk4RZnHJlwznpZwvc72k5Ugas6H6wXx12ARfF4FmCspn8z0bz5TezbvAXkbaLL1b_-
        -F3S7ZwCracIOfwS3xfeS7WStjCn-35P0vfpO8axz8-NBr7mo6wF18mbvcGkbd7_XVE_pGum__8UXQyMGcR-NMoqv2ihYIdF4bclibB1wPPRHzTdvUXJqrkDJYdkgJYndOJt2yib1aHpTgvNmJtGcuUY4RpQlDKPnJEB72qYnnnGmh8vla4j3xIUi33hXC7UZHE8O4Y2f1LpGhLNPgKcO8AZAPjEXFofHsKxIFEclKEWBNP_2U3GKlAs1UGKuNdZgwGVRnz95c-UTAe8aYvKfkdbxN6nuevOqmz5BQqPqHZob7H5Z2xZa1cT06C-kbvkRNqiEPtjfk3lH7DgYRL_brMcZbIDWy6m_qKCypjI1Lhdlj8u0hNPj6iPr0ZnpTKQL9QqzBtmB4MKcaaiqZOtMqMopsdWkRDYZkqVkQi91dLsryx2j9ed475LsTNO8T8G8ar0A3CUCTNYdTaoKAM1jABvXanc0J8G0iA-FCklPkcLylvSQquHiy3eOVeqtU5fQsG5HK2zv4_46JV54sulUgEdZDEStgezVENqCRN_wypBwxhVsZBpJdcfGJ-OGxC3cLlznpnnBSljvIjzoQvTj0zt3VfL94SnbHQickQ0wG-uaIxVpaDr1wMbRNSu18BtIQqBNpqpOAcAbGrpuRTsTJL7JGkGGe2j4_YfxeqsnKHIzTuEw98UvCWqWM1BPUPsLmQL19MqPfQ1bw5s9tQnYWkjt-etezeXUXjuDNQl2WX-3vMuDctBttqVUBmWUt0vw2jLiWiAdFGrxfsZSIbErYJFJ0j5hTCxEjGaYwa3n-jw44GnO5LzqR0Zd1u9uTa93E6QrX0Eo55QoyiWa25NH4U06olZEHqnfnqMRoKl3PgN2WCmfxvfGVVhpsT12yyLP9NiN69ahy0]-->
    </g>
</svg>