<?xml version="1.0" encoding="us-ascii" standalone="no"?>
<svg xmlns="http://www.w3.org/2000/svg" xmlns:xlink="http://www.w3.org/1999/xlink"
    contentStyleType="text/css" height="1042px" preserveAspectRatio="none"
    style="width:1279px;height:1042px;background:#FFFFFF;" version="1.1" viewBox="0 0 1279 1042"
    width="1279px" zoomAndPan="magnify">
    <style>
        :target ellipse {
            fill: #00c3ff !important;
        }
    </style>
    <defs />
    <g><!--cluster
        RecSIS - Studijn? pl?ny-->
        <g id="cluster_RecSIS - Studijn&#237; pl&#225;ny">
            <rect fill="none" height="1029" rx="2.5" ry="2.5"
                style="stroke:#181818;stroke-width:1.0;" width="1082" x="191" y="7" />
            <text fill="#000000" font-family="sans-serif" font-size="14" font-weight="bold"
                lengthAdjust="spacing" textLength="156" x="654" y="23.5332">RecSIS - Studijn&#237;
                pl&#225;ny</text>
        </g>
        <g id="elem_UC_001">
            <ellipse cx="348.4738" cy="371.0062" fill="#F1F1F1" rx="114.4738" ry="28.0062"
                style="stroke:#181818;stroke-width:0.5;" />
            <text fill="#000000" font-family="sans-serif" font-size="14" lengthAdjust="spacing"
                textLength="145" x="272.9738" y="366.7181">Upozorn&#283;n&#237; na rekvizity</text>
            <text fill="#000000" font-family="sans-serif" font-size="14" lengthAdjust="spacing"
                textLength="109" x="290.9738" y="384.3275">ve vlastn&#237;m pl&#225;nu</text>
        </g>
        <g id="elem_UC_002">
            <ellipse cx="348.533" cy="621.9098" fill="#F1F1F1" rx="93.533" ry="27.9098"
                style="stroke:#181818;stroke-width:0.5;" />
            <text fill="#000000" font-family="sans-serif" font-size="14" lengthAdjust="spacing"
                textLength="116" x="289.0809" y="617.2332">Vyhled&#225;v&#225;n&#237;
                pl&#225;n&#367;</text>
            <text fill="#000000" font-family="sans-serif" font-size="14" lengthAdjust="spacing"
                textLength="76" x="309.0809" y="634.8426">podle n&#225;zvu</text>
        </g>
        <g id="elem_UC_003">
            <ellipse cx="348.533" cy="530.9098" fill="#F1F1F1" rx="93.533" ry="27.9098"
                style="stroke:#181818;stroke-width:0.5;" />
            <text fill="#000000" font-family="sans-serif" font-size="14" lengthAdjust="spacing"
                textLength="116" x="289.0809" y="526.2332">Vyhled&#225;v&#225;n&#237;
                pl&#225;n&#367;</text>
            <text fill="#000000" font-family="sans-serif" font-size="14" lengthAdjust="spacing"
                textLength="70" x="312.0809" y="543.8426">podle k&#243;du</text>
        </g>
        <g id="elem_UC_004">
            <ellipse cx="348.376" cy="451.0752" fill="#F1F1F1" rx="73.376" ry="17.0752"
                style="stroke:#181818;stroke-width:0.5;" />
            <text fill="#000000" font-family="sans-serif" font-size="14" lengthAdjust="spacing"
                textLength="97" x="296.876" y="455.5918">Filtrov&#225;n&#237; pl&#225;n&#367;</text>
        </g>
        <g id="elem_UC_005">
            <ellipse cx="724.8525" cy="530.8705" fill="#F1F1F1" rx="74.8525" ry="17.3705"
                style="stroke:#181818;stroke-width:0.5;" />
            <text fill="#000000" font-family="sans-serif" font-size="14" lengthAdjust="spacing"
                textLength="101" x="671.3525" y="535.3871">Zobrazen&#237; pl&#225;nu</text>
        </g>
        <g id="elem_UC_006">
            <ellipse cx="1108.3351" cy="788.867" fill="#F1F1F1" rx="82.3351" ry="18.867"
                style="stroke:#181818;stroke-width:0.5;" />
            <text fill="#000000" font-family="sans-serif" font-size="14" lengthAdjust="spacing"
                textLength="120" x="1048.3351" y="792.5955">&#218;vodn&#237; text u pl&#225;nu</text>
        </g>
        <g id="elem_UC_007">
            <ellipse cx="1108.7192" cy="709.9438" fill="#F1F1F1" rx="112.7192" ry="24.9438"
                style="stroke:#181818;stroke-width:0.5;" />
            <text fill="#000000" font-family="sans-serif" font-size="14" lengthAdjust="spacing"
                textLength="189" x="1014.2192" y="713.6724">Zobrazen&#237; kreditov&#253;ch
                statistik</text>
        </g>
        <g id="elem_UC_008">
            <ellipse cx="1108.5807" cy="621.9034" fill="#F1F1F1" rx="100.5807" ry="27.9034"
                style="stroke:#181818;stroke-width:0.5;" />
            <text fill="#000000" font-family="sans-serif" font-size="14" lengthAdjust="spacing"
                textLength="100" x="1058.5807" y="616.8272">Detail p&#345;edm&#283;tu</text>
            <text fill="#000000" font-family="sans-serif" font-size="14" lengthAdjust="spacing"
                textLength="126" x="1045.5807" y="634.4366">v zobrazen&#233;m pl&#225;nu</text>
        </g>
        <g id="elem_UC_009">
            <ellipse cx="348.636" cy="803.9881" fill="#F1F1F1" rx="110.136" ry="27.9881"
                style="stroke:#181818;stroke-width:0.5;" />
            <text fill="#000000" font-family="sans-serif" font-size="14" lengthAdjust="spacing"
                textLength="139" x="276.136" y="799.7">Zobrazen&#237; rozd&#237;l&#367; mezi</text>
            <text fill="#000000" font-family="sans-serif" font-size="14" lengthAdjust="spacing"
                textLength="80" x="305.636" y="817.3094">dv&#283;ma pl&#225;ny</text>
        </g>
        <g id="elem_UC_010">
            <ellipse cx="348.4699" cy="898.194" fill="#F1F1F1" rx="141.4699" ry="30.694"
                style="stroke:#181818;stroke-width:0.5;" />
            <text fill="#000000" font-family="sans-serif" font-size="14" lengthAdjust="spacing"
                textLength="201" x="244.9699" y="893.9059">Zobrazen&#237; spole&#269;n&#253;ch
                p&#345;edm&#283;t&#367;</text>
            <text fill="#000000" font-family="sans-serif" font-size="14" lengthAdjust="spacing"
                textLength="112" x="289.4699" y="911.5153">mezi dv&#283;ma pl&#225;ny</text>
        </g>
        <g id="elem_UC_011">
            <ellipse cx="348.7036" cy="713.0335" fill="#F1F1F1" rx="121.7036" ry="28.0335"
                style="stroke:#181818;stroke-width:0.5;" />
            <text fill="#000000" font-family="sans-serif" font-size="14" lengthAdjust="spacing"
                textLength="155" x="268.2036" y="708.7454">Vyhled&#225;v&#225;n&#237;
                pl&#225;n&#367; podle</text>
            <text fill="#000000" font-family="sans-serif" font-size="14" lengthAdjust="spacing"
                textLength="60" x="315.7036" y="726.3548">p&#345;edm&#283;t&#367;</text>
        </g>
        <g id="elem_UC_012">
            <ellipse cx="725.2412" cy="437.9482" fill="#F1F1F1" rx="102.7412" ry="22.9482"
                style="stroke:#181818;stroke-width:0.5;" />
            <text fill="#000000" font-family="sans-serif" font-size="14" lengthAdjust="spacing"
                textLength="167" x="641.7412" y="441.6768">Ozna&#269;en&#237; pl&#225;nu za
                zvolen&#253;</text>
        </g>
        <g id="elem_UC_013">
            <ellipse cx="1108.5452" cy="530.9034" fill="#F1F1F1" rx="97.0452" ry="27.9034"
                style="stroke:#181818;stroke-width:0.5;" />
            <text fill="#000000" font-family="sans-serif" font-size="14" lengthAdjust="spacing"
                textLength="113" x="1052.0452" y="525.8272">Zobrazen&#237; statistik</text>
            <text fill="#000000" font-family="sans-serif" font-size="14" lengthAdjust="spacing"
                textLength="121" x="1048.0452" y="543.4366">o studentech pl&#225;nu</text>
        </g>
        <g id="elem_UC_014">
            <ellipse cx="724.859" cy="628.9912" fill="#F1F1F1" rx="110.859" ry="27.9912"
                style="stroke:#181818;stroke-width:0.5;" />
            <text fill="#000000" font-family="sans-serif" font-size="14" lengthAdjust="spacing"
                textLength="140" x="651.859" y="624.7031">Proch&#225;zen&#237; hodnocen&#237;</text>
            <text fill="#000000" font-family="sans-serif" font-size="14" lengthAdjust="spacing"
                textLength="118" x="662.859" y="642.3125">a koment&#225;&#345;&#367; pl&#225;nu</text>
        </g>
        <g id="elem_UC_015">
            <ellipse cx="348.3523" cy="73.9705" fill="#F1F1F1" rx="140.3523" ry="30.4705"
                style="stroke:#181818;stroke-width:0.5;" />
            <text fill="#000000" font-family="sans-serif" font-size="14" lengthAdjust="spacing"
                textLength="198" x="246.3523" y="69.6824">Vlo&#382;en&#237; doporu&#269;en&#233;ho
                pr&#367;b&#283;hu</text>
            <text fill="#000000" font-family="sans-serif" font-size="14" lengthAdjust="spacing"
                textLength="157" x="266.8523" y="87.2918">studia do vlastn&#237;ho pl&#225;nu</text>
        </g>
        <g id="elem_UC_016">
            <ellipse cx="1108.7076" cy="436.1415" fill="#F1F1F1" rx="148.7076" ry="32.1415"
                style="stroke:#181818;stroke-width:0.5;" />
            <text fill="#000000" font-family="sans-serif" font-size="14" lengthAdjust="spacing"
                textLength="220" x="995.8425" y="431.8203">Zobrazen&#237; p&#345;edm&#283;t&#367;
                doporu&#269;en&#253;ch</text>
            <text fill="#000000" font-family="sans-serif" font-size="14" lengthAdjust="spacing"
                textLength="209" x="1001.3425" y="449.4297">ke st&#225;tn&#237;m
                z&#225;v&#283;re&#269;n&#253;m zkou&#353;k&#225;m</text>
        </g>
        <g id="elem_UC_017">
            <ellipse cx="1108.3753" cy="348.1751" fill="#F1F1F1" rx="93.8753" ry="21.1751"
                style="stroke:#181818;stroke-width:0.5;" />
            <text fill="#000000" font-family="sans-serif" font-size="14" lengthAdjust="spacing"
                textLength="147" x="1034.8753" y="351.9036">Zobrazen&#237; mapy rekvizit</text>
        </g>
        <g id="elem_UC_018">
            <ellipse cx="348.7025" cy="282.1405" fill="#F1F1F1" rx="118.7025" ry="26.1405"
                style="stroke:#181818;stroke-width:0.5;" />
            <text fill="#000000" font-family="sans-serif" font-size="14" lengthAdjust="spacing"
                textLength="202" x="247.7025" y="285.869">Hodnocen&#237; a komentov&#225;n&#237;
                pl&#225;nu</text>
        </g>
        <g id="elem_UC_019">
            <ellipse cx="348.6395" cy="180.1279" fill="#F1F1F1" rx="103.6395" ry="23.1279"
                style="stroke:#181818;stroke-width:0.5;" />
            <text fill="#000000" font-family="sans-serif" font-size="14" lengthAdjust="spacing"
                textLength="169" x="264.1395" y="183.8564">Zobrazen&#237; zvolen&#233;ho pl&#225;nu</text>
        </g>
        <g id="elem_UC_020">
            <ellipse cx="348.6295" cy="991.9581" fill="#F1F1F1" rx="103.6295" ry="27.9581"
                style="stroke:#181818;stroke-width:0.5;" />
            <text fill="#000000" font-family="sans-serif" font-size="14" lengthAdjust="spacing"
                textLength="130" x="280.6295" y="987.67">Historie zobrazen&#253;ch</text>
            <text fill="#000000" font-family="sans-serif" font-size="14" lengthAdjust="spacing"
                textLength="35" x="328.1295" y="1005.2794">pl&#225;n&#367;</text>
        </g>
        <g id="elem_UC_021">
            <ellipse cx="1108.3725" cy="264.0411" fill="#F1F1F1" rx="123.8725" ry="28.0411"
                style="stroke:#181818;stroke-width:0.5;" />
            <text fill="#000000" font-family="sans-serif" font-size="14" lengthAdjust="spacing"
                textLength="158" x="1026.3725" y="259.753">Zobrazen&#237; doporu&#269;en&#233;ho</text>
            <text fill="#000000" font-family="sans-serif" font-size="14" lengthAdjust="spacing"
                textLength="95" x="1057.8725" y="277.3623">pr&#367;b&#283;hu studia</text>
        </g><!--entity
        AC_S-->
        <g id="elem_AC_S">
            <ellipse cx="75" cy="460.5" fill="#F1F1F1" rx="8" ry="8"
                style="stroke:#181818;stroke-width:0.5;" />
            <path
                d="M75,468.5 L75,495.5 M62,476.5 L88,476.5 M75,495.5 L62,510.5 M75,495.5 L88,510.5 "
                fill="none" style="stroke:#181818;stroke-width:0.5;" />
            <text fill="#000000" font-family="sans-serif" font-size="14" lengthAdjust="spacing"
                textLength="49" x="50.5" y="526.5332">Student</text>
        </g><!--entity
        AC_NS-->
        <g id="elem_AC_NS">
            <ellipse cx="75" cy="773.5" fill="#F1F1F1" rx="8" ry="8"
                style="stroke:#181818;stroke-width:0.5;" />
            <path
                d="M75,781.5 L75,808.5 M62,789.5 L88,789.5 M75,808.5 L62,823.5 M75,808.5 L88,823.5 "
                fill="none" style="stroke:#181818;stroke-width:0.5;" />
            <text fill="#000000" font-family="sans-serif" font-size="14" lengthAdjust="spacing"
                textLength="138" x="6" y="839.5332">Nerozhodnut&#253; student</text>
        </g><!--entity
        AC_RS-->
        <g id="elem_AC_RS">
            <ellipse cx="75" cy="342.5" fill="#F1F1F1" rx="8" ry="8"
                style="stroke:#181818;stroke-width:0.5;" />
            <path
                d="M75,350.5 L75,377.5 M62,358.5 L88,358.5 M75,377.5 L62,392.5 M75,377.5 L88,392.5 "
                fill="none" style="stroke:#181818;stroke-width:0.5;" />
            <text fill="#000000" font-family="sans-serif" font-size="14" lengthAdjust="spacing"
                textLength="126" x="12" y="408.5332">Rozhodnut&#253; student</text>
        </g><!--reverse
        link AC_S to AC_NS-->
        <g id="link_AC_S_AC_NS">
            <path d="M75,548.05 C75,626.32 75,686.6 75,764.88 " fill="none" id="AC_S-backto-AC_NS"
                style="stroke:#181818;stroke-width:1.0;" />
            <polygon fill="none" points="75,530.05,69,548.05,81,548.05,75,530.05"
                style="stroke:#181818;stroke-width:1.0;" />
        </g><!--link
        AC_RS to AC_S-->
        <g id="link_AC_RS_AC_S">
            <path d="M75,412.1 C75,425.34 75,420.58 75,433.82 " fill="none" id="AC_RS-to-AC_S"
                style="stroke:#181818;stroke-width:1.0;" />
            <polygon fill="none" points="75,451.82,81,433.82,69,433.82,75,451.82"
                style="stroke:#181818;stroke-width:1.0;" />
        </g><!--link
        AC_S to UC_001-->
        <g id="link_AC_S_UC_001">
            <path
                d="M99.59,470.85 C120.34,454.04 152,430.57 183,416 C207.12,404.67 228.813,397.2875 254.323,390.4775 "
                fill="none" id="AC_S-to-UC_001" style="stroke:#181818;stroke-width:1.0;" />
            <polygon fill="#181818"
                points="260.12,388.93,250.3928,387.3866,255.2892,390.2196,252.4562,395.116,260.12,388.93"
                style="stroke:#181818;stroke-width:1.0;" />
        </g><!--link
        AC_S to UC_002-->
        <g id="link_AC_S_UC_002">
            <path
                d="M99.54,514.33 C120.02,533.42 151.3,559.82 183,576 C209.81,589.69 235.4051,598.271 263.5551,605.431 "
                fill="none" id="AC_S-to-UC_002" style="stroke:#181818;stroke-width:1.0;" />
            <polygon fill="#181818"
                points="269.37,606.91,261.6337,600.8149,264.5243,605.6775,259.6617,608.568,269.37,606.91"
                style="stroke:#181818;stroke-width:1.0;" />
        </g><!--link
        AC_S to UC_003-->
        <g id="link_AC_S_UC_003">
            <path d="M99.62,494.48 C136,499.84 201.5642,509.4948 258.4642,517.8848 " fill="none"
                id="AC_S-to-UC_003" style="stroke:#181818;stroke-width:1.0;" />
            <polygon fill="#181818"
                points="264.4,518.76,256.0798,513.4899,259.4535,518.0306,254.9128,521.4043,264.4,518.76"
                style="stroke:#181818;stroke-width:1.0;" />
        </g><!--link
        AC_S to UC_004-->
        <g id="link_AC_S_UC_004">
            <path d="M99.62,487.52 C140.84,481.45 221.204,469.6043 280.274,460.9043 " fill="none"
                id="AC_S-to-UC_004" style="stroke:#181818;stroke-width:1.0;" />
            <polygon fill="#181818"
                points="286.21,460.03,276.7232,457.3841,281.2634,460.7586,277.8889,465.2987,286.21,460.03"
                style="stroke:#181818;stroke-width:1.0;" />
        </g><!--link
        AC_NS to UC_009-->
        <g id="link_AC_NS_UC_009">
            <path d="M144.16,804 C172.67,804 200.52,804 232.34,804 " fill="none"
                id="AC_NS-to-UC_009" style="stroke:#181818;stroke-width:1.0;" />
            <polygon fill="#181818" points="238.34,804,229.34,800,233.34,804,229.34,808,238.34,804"
                style="stroke:#181818;stroke-width:1.0;" />
        </g><!--link
        AC_NS to UC_010-->
        <g id="link_AC_NS_UC_010">
            <path
                d="M144,834.71 C156.85,840.08 170.25,845.42 183,850 C207.36,858.75 228.3991,865.4231 253.1691,872.6331 "
                fill="none" id="AC_NS-to-UC_010" style="stroke:#181818;stroke-width:1.0;" />
            <polygon fill="#181818"
                points="258.93,874.31,251.4065,867.9541,254.1292,872.9126,249.1707,875.6353,258.93,874.31"
                style="stroke:#181818;stroke-width:1.0;" />
        </g><!--link
        AC_NS to UC_011-->
        <g id="link_AC_NS_UC_011">
            <path
                d="M144.23,773 C156.99,767.68 170.31,762.44 183,758 C209.13,748.86 232.3256,741.9472 258.5956,734.8872 "
                fill="none" id="AC_NS-to-UC_011" style="stroke:#181818;stroke-width:1.0;" />
            <polygon fill="#181818"
                points="264.39,733.33,254.6603,731.8029,259.5613,734.6277,256.7366,739.5288,264.39,733.33"
                style="stroke:#181818;stroke-width:1.0;" />
        </g><!--link
        AC_NS to UC_020-->
        <g id="link_AC_NS_UC_020">
            <path
                d="M95.99,843.13 C114.39,875.34 144.63,919.81 183,946 C205.17,961.13 226.4217,969.7674 252.1317,976.6074 "
                fill="none" id="AC_NS-to-UC_020" style="stroke:#181818;stroke-width:1.0;" />
            <polygon fill="#181818"
                points="257.93,978.15,250.2609,971.9706,253.0981,976.8645,248.2041,979.7016,257.93,978.15"
                style="stroke:#181818;stroke-width:1.0;" />
        </g><!--link
        AC_RS to UC_019-->
        <g id="link_AC_RS_UC_019">
            <path
                d="M98.6,333.69 C117.65,303.71 147.46,263.36 183,238 C210.11,218.65 238.5514,206.9387 268.7214,197.9187 "
                fill="none" id="AC_RS-to-UC_019" style="stroke:#181818;stroke-width:1.0;" />
            <polygon fill="#181818"
                points="274.47,196.2,264.7014,194.9456,269.6795,197.6322,266.9929,202.6104,274.47,196.2"
                style="stroke:#181818;stroke-width:1.0;" />
        </g><!--reverse
        link UC_002 to UC_005-->
        <g id="link_UC_002_UC_005">
            <path d="M427.5403,603.0332 C501.0803,585.1632 607.45,559.32 672.47,543.52 " fill="none"
                id="UC_002-backto-UC_005"
                style="stroke:#181818;stroke-width:1.0;stroke-dasharray:7.0,7.0;" />
            <polygon fill="#181818"
                points="421.71,604.45,431.4,606.2118,426.5686,603.2694,429.511,598.438,421.71,604.45"
                style="stroke:#181818;stroke-width:1.0;" />
            <text fill="#000000" font-family="sans-serif" font-size="13" lengthAdjust="spacing"
                textLength="60" x="522" y="562.4951">&#171;extends&#187;</text>
        </g><!--reverse
        link UC_003 to UC_005-->
        <g id="link_UC_003_UC_005">
            <path d="M448.07,531 C512.08,531 590.11,531 649.74,531 " fill="none"
                id="UC_003-backto-UC_005"
                style="stroke:#181818;stroke-width:1.0;stroke-dasharray:7.0,7.0;" />
            <polygon fill="#181818" points="442.07,531,451.07,535,447.07,531,451.07,527,442.07,531"
                style="stroke:#181818;stroke-width:1.0;" />
            <text fill="#000000" font-family="sans-serif" font-size="13" lengthAdjust="spacing"
                textLength="60" x="522" y="527.4951">&#171;extends&#187;</text>
        </g><!--reverse
        link UC_004 to UC_005-->
        <g id="link_UC_004_UC_005">
            <path d="M409.0276,463.7134 C479.8076,478.8334 597.88,504.06 669.22,519.3 " fill="none"
                id="UC_004-backto-UC_005"
                style="stroke:#181818;stroke-width:1.0;stroke-dasharray:7.0,7.0;" />
            <polygon fill="#181818"
                points="403.16,462.46,411.1258,468.2519,408.0497,463.5045,412.797,460.4284,403.16,462.46"
                style="stroke:#181818;stroke-width:1.0;" />
            <text fill="#000000" font-family="sans-serif" font-size="13" lengthAdjust="spacing"
                textLength="60" x="522" y="485.4951">&#171;extends&#187;</text>
        </g><!--reverse
        link UC_011 to UC_005-->
        <g id="link_UC_011_UC_005">
            <path
                d="M432.8127,689.6947 C453.6627,682.8747 470.2,676.47 490,667 C534.93,645.52 543.32,634.73 584,606 C597.72,596.31 599.66,591.75 614,583 C637.35,568.75 665.23,555.61 687.07,546.11 "
                fill="none" id="UC_011-backto-UC_005"
                style="stroke:#181818;stroke-width:1.0;stroke-dasharray:7.0,7.0;" />
            <polygon fill="#181818"
                points="427.11,691.56,436.9076,692.5638,431.8622,690.0056,434.4205,684.9602,427.11,691.56"
                style="stroke:#181818;stroke-width:1.0;" />
            <text fill="#000000" font-family="sans-serif" font-size="13" lengthAdjust="spacing"
                textLength="60" x="522" y="602.4951">&#171;extends&#187;</text>
        </g><!--link
        UC_005 to UC_006-->
        <g id="link_UC_005_UC_006">
            <path
                d="M774.53,544.19 C796,552.24 819.96,564.62 836,583 C865.11,616.36 840.82,641.58 866,678 C896.24,721.74 912.27,728.57 960,752 C984.88,764.22 1008.3094,771.3542 1034.1994,777.0342 "
                fill="none" id="UC_005-to-UC_006"
                style="stroke:#181818;stroke-width:1.0;stroke-dasharray:7.0,7.0;" />
            <polygon fill="#181818"
                points="1040.06,778.32,1032.1262,772.4843,1035.1762,777.2485,1030.4119,780.2984,1040.06,778.32"
                style="stroke:#181818;stroke-width:1.0;" />
            <text fill="#000000" font-family="sans-serif" font-size="13" lengthAdjust="spacing"
                textLength="62" x="867" y="674.4951">&#171;includes&#187;</text>
        </g><!--link
        UC_005 to UC_007-->
        <g id="link_UC_005_UC_007">
            <path
                d="M762.93,546.11 C784.77,555.61 812.65,568.75 836,583 C850.34,591.75 852.28,596.31 866,606 C906.68,634.73 914.72,646.25 960,667 C982.07,677.11 1001.3093,683.8273 1024.3893,690.3973 "
                fill="none" id="UC_005-to-UC_007"
                style="stroke:#181818;stroke-width:1.0;stroke-dasharray:7.0,7.0;" />
            <polygon fill="#181818"
                points="1030.16,692.04,1022.599,685.7288,1025.351,690.6711,1020.4087,693.4231,1030.16,692.04"
                style="stroke:#181818;stroke-width:1.0;" />
            <text fill="#000000" font-family="sans-serif" font-size="13" lengthAdjust="spacing"
                textLength="62" x="867" y="602.4951">&#171;includes&#187;</text>
        </g><!--link
        UC_005 to UC_008-->
        <g id="link_UC_005_UC_008">
            <path d="M778.25,543.46 C843.75,559.09 950.7038,584.5976 1025.7338,602.4976 "
                fill="none" id="UC_005-to-UC_008"
                style="stroke:#181818;stroke-width:1.0;stroke-dasharray:7.0,7.0;" />
            <polygon fill="#181818"
                points="1031.57,603.89,1023.7439,597.9107,1026.7065,602.7297,1021.8874,605.6923,1031.57,603.89"
                style="stroke:#181818;stroke-width:1.0;" />
            <text fill="#000000" font-family="sans-serif" font-size="13" lengthAdjust="spacing"
                textLength="62" x="867" y="562.4951">&#171;includes&#187;</text>
        </g><!--link
        UC_005 to UC_013-->
        <g id="link_UC_005_UC_013">
            <path d="M800.01,531 C860.25,531 939.72,531 1005.27,531 " fill="none"
                id="UC_005-to-UC_013"
                style="stroke:#181818;stroke-width:1.0;stroke-dasharray:7.0,7.0;" />
            <polygon fill="#181818"
                points="1011.27,531,1002.27,527,1006.27,531,1002.27,535,1011.27,531"
                style="stroke:#181818;stroke-width:1.0;" />
            <text fill="#000000" font-family="sans-serif" font-size="13" lengthAdjust="spacing"
                textLength="62" x="867" y="527.4951">&#171;includes&#187;</text>
        </g><!--link
        UC_005 to UC_016-->
        <g id="link_UC_005_UC_016">
            <path d="M777.05,518.29 C836.54,503.47 930.3379,480.1204 1004.6779,461.6004 "
                fill="none" id="UC_005-to-UC_016"
                style="stroke:#181818;stroke-width:1.0;stroke-dasharray:7.0,7.0;" />
            <polygon fill="#181818"
                points="1010.5,460.15,1000.8,458.4443,1005.6483,461.3587,1002.7339,466.207,1010.5,460.15"
                style="stroke:#181818;stroke-width:1.0;" />
            <text fill="#000000" font-family="sans-serif" font-size="13" lengthAdjust="spacing"
                textLength="62" x="867" y="477.4951">&#171;includes&#187;</text>
        </g><!--link
        UC_005 to UC_017-->
        <g id="link_UC_005_UC_017">
            <path
                d="M762.4,515.73 C784.31,505.99 812.44,492.5 836,478 C850.31,469.2 852.56,465.08 866,455 C907.46,423.9 913.17,408.2 960,386 C983.18,375.01 1004.1361,368.3021 1028.4761,362.4521 "
                fill="none" id="UC_005-to-UC_017"
                style="stroke:#181818;stroke-width:1.0;stroke-dasharray:7.0,7.0;" />
            <polygon fill="#181818"
                points="1034.31,361.05,1024.6244,359.264,1029.4484,362.2185,1026.494,367.0425,1034.31,361.05"
                style="stroke:#181818;stroke-width:1.0;" />
            <text fill="#000000" font-family="sans-serif" font-size="13" lengthAdjust="spacing"
                textLength="62" x="867" y="400.4951">&#171;includes&#187;</text>
        </g><!--link
        UC_005 to UC_021-->
        <g id="link_UC_005_UC_021">
            <path
                d="M774.11,517.67 C795.74,509.45 819.97,496.78 836,478 C866.13,442.71 839.25,415.91 866,378 C895.88,335.66 913.67,332.22 960,309 C979.75,299.1 996.3479,292.6829 1017.5579,286.1229 "
                fill="none" id="UC_005-to-UC_021"
                style="stroke:#181818;stroke-width:1.0;stroke-dasharray:7.0,7.0;" />
            <polygon fill="#181818"
                points="1023.29,284.35,1013.5099,283.1879,1018.5133,285.8274,1015.8738,290.8307,1023.29,284.35"
                style="stroke:#181818;stroke-width:1.0;" />
            <text fill="#000000" font-family="sans-serif" font-size="13" lengthAdjust="spacing"
                textLength="62" x="867" y="321.4951">&#171;includes&#187;</text>
        </g><!--reverse
        link UC_005 to UC_012-->
        <g id="link_UC_005_UC_012">
            <path d="M725,507.07 C725,492.29 725,477.22 725,461.17 " fill="none"
                id="UC_005-backto-UC_012"
                style="stroke:#181818;stroke-width:1.0;stroke-dasharray:7.0,7.0;" />
            <polygon fill="#181818" points="725,513.07,729,504.07,725,508.07,721,504.07,725,513.07"
                style="stroke:#181818;stroke-width:1.0;" />
            <text fill="#000000" font-family="sans-serif" font-size="13" lengthAdjust="spacing"
                textLength="60" x="683" y="492.7451">&#171;extends&#187;</text>
        </g><!--link
        UC_014 to UC_005-->
        <g id="link_UC_014_UC_005">
            <path d="M725,600.92 C725,584.06 725,569.14 725,554.6 " fill="none"
                id="UC_014-to-UC_005"
                style="stroke:#181818;stroke-width:1.0;stroke-dasharray:7.0,7.0;" />
            <polygon fill="#181818" points="725,548.6,721,557.6,725,553.6,729,557.6,725,548.6"
                style="stroke:#181818;stroke-width:1.0;" />
            <text fill="#000000" font-family="sans-serif" font-size="13" lengthAdjust="spacing"
                textLength="60" x="683" y="580.2451">&#171;extends&#187;</text>
        </g><!--reverse
        link UC_019 to UC_015-->
        <g id="link_UC_019_UC_015">
            <path d="M348.5,151 C348.5,135.66 348.5,121.31 348.5,104.6 " fill="none"
                id="UC_019-backto-UC_015"
                style="stroke:#181818;stroke-width:1.0;stroke-dasharray:7.0,7.0;" />
            <polygon fill="#181818" points="348.5,157,352.5,148,348.5,152,344.5,148,348.5,157"
                style="stroke:#181818;stroke-width:1.0;" />
            <text fill="#000000" font-family="sans-serif" font-size="13" lengthAdjust="spacing"
                textLength="60" x="306.5" y="136.2451">&#171;extends&#187;</text>
        </g><!--link
        UC_018 to UC_019-->
        <g id="link_UC_018_UC_019">
            <path d="M348.5,256 C348.5,239.71 348.5,224.9 348.5,209.17 " fill="none"
                id="UC_018-to-UC_019"
                style="stroke:#181818;stroke-width:1.0;stroke-dasharray:7.0,7.0;" />
            <polygon fill="#181818"
                points="348.5,203.17,344.5,212.17,348.5,208.17,352.5,212.17,348.5,203.17"
                style="stroke:#181818;stroke-width:1.0;" />
            <text fill="#000000" font-family="sans-serif" font-size="13" lengthAdjust="spacing"
                textLength="60" x="306.5" y="234.9951">&#171;extends&#187;</text>
        </g><!--link
        UC_019 to UC_005-->
        <g id="link_UC_019_UC_005">
            <path
                d="M417.54,197.3 C442.54,206.26 469.69,219.35 490,238 C578.44,319.2 527.93,394.3 614,478 C632.24,495.73 651.9654,506.2962 673.7054,514.8362 "
                fill="none" id="UC_019-to-UC_005"
                style="stroke:#181818;stroke-width:1.0;stroke-dasharray:7.0,7.0;" />
            <polygon fill="#181818"
                points="679.29,517.03,672.3756,510.0163,674.6362,515.2019,669.4506,517.4624,679.29,517.03"
                style="stroke:#181818;stroke-width:1.0;" />
            <text fill="#000000" font-family="sans-serif" font-size="13" lengthAdjust="spacing"
                textLength="62" x="521" y="273.4951">&#171;includes&#187;</text>
        </g><!--SRC=[bLJDJjj04BxxAKRS4yNv0LAXI1LLHI-q8e935GaPUqksTdQjzTfgtFOHU038oKSEY4FFzEBalJgsk_vPOhdDAJl-vfkVRsOyyaM2v23exLA2GmMn9UNCC2nRSW47SnawXCa3i09uUtezL_Pp8dYyv0uBPVe2GHDrNi8ksa4NSyF8ebdirYE89FRymnnwa4MaNrdw1BwN9cnz0DyDm5yO4DiA47dfyvWBjjra66Q186v4OohN2nOHY3mhaFXbLRY7URZBq-l1m6pINAsN7d7I94AK2hPxNZ2VEvWFIvCugZaF_yVPJNyvDTzHq_SzzQJWJSyAF6w2F_CROSMaXDPe9qra-X1Xfn4doJS9uIluOIknAuX39MRqOYzH9KlIG5AtyZngUhuZqg8U-Bjxugos6nbYto5MT8-l6t_S6Xbdo4cVlDqph4XC5yo9jfkLLGgl2AQj187FFRAzOtdgPKQP4XaXxESp1_yY9kHQegGLQyMWpTB7c5dRkvfA45iGHvWRPbPv3TlhK5rVCAuMXMGbDLjfQgFqIN1xYPEQSsIBnktixmAtmkKhv4YJtNrMYaQZ3TcLntU_Smw7-ro4UIcFImw-s3tVR3TBb3XBYbe8A3Si-wxnJjg7j-fYFGZAjc0kmPBJfDZQ67NORaGXAZvT7kuIDqrMLPJsILvP_hgy1vM3Di1dPQD0zQcnZhM2saVthxgFUxgWZUiP2ii59TMEv5NhcpySjCPggeAkIXOeLAauJEEdOUGN67fUxyUikDdvjOMUA0sP9JVCr6ai3EezrDuZxJqkWoZBL3FWZca6KpDWlIen1PaQHd7Pe1_sLIhm1avEyAGHvWIpsMl0g0imxW2OfWOe4OwYECmHbDaURcQTeqGSTIAEkn3cg1FHcOVPcSVGr156SPkWxwbK9tiwPewXBze01M9IKPZJVHJ75SL-m1JwpH2rDFy0]-->
    </g>
</svg>