<?xml version="1.0" encoding="us-ascii" standalone="no"?><svg xmlns="http://www.w3.org/2000/svg" xmlns:xlink="http://www.w3.org/1999/xlink" contentStyleType="text/css" height="1037px" preserveAspectRatio="none" style="width:1282px;height:1037px;background:#FFFFFF;" version="1.1" viewBox="0 0 1282 1037" width="1282px" zoomAndPan="magnify"><defs/><g><!--cluster RecSIS - Studijn? pl?ny--><g id="cluster_RecSIS - Studijn&#237; pl&#225;ny"><rect fill="none" height="1024" rx="2.5" ry="2.5" style="stroke:#181818;stroke-width:1.0;" width="1085" x="191" y="7"/><text fill="#000000" font-family="sans-serif" font-size="14" font-weight="bold" lengthAdjust="spacing" textLength="156" x="655.5" y="23.5332">RecSIS - Studijn&#237; pl&#225;ny</text></g><g id="elem_UC_001"><ellipse cx="349.9738" cy="372.0062" fill="#F1F1F1" rx="114.4738" ry="28.0062" style="stroke:#181818;stroke-width:0.5;"/><text fill="#000000" font-family="sans-serif" font-size="14" lengthAdjust="spacing" textLength="145" x="274.4738" y="367.7181">Upozorn&#283;n&#237; na rekvizity</text><text fill="#000000" font-family="sans-serif" font-size="14" lengthAdjust="spacing" textLength="109" x="292.4738" y="385.3275">ve vlastn&#237;m pl&#225;nu</text></g><g id="elem_UC_002"><ellipse cx="350.033" cy="622.9098" fill="#F1F1F1" rx="93.533" ry="27.9098" style="stroke:#181818;stroke-width:0.5;"/><text fill="#000000" font-family="sans-serif" font-size="14" lengthAdjust="spacing" textLength="116" x="290.5809" y="618.2332">Vyhled&#225;v&#225;n&#237; pl&#225;n&#367;</text><text fill="#000000" font-family="sans-serif" font-size="14" lengthAdjust="spacing" textLength="76" x="310.5809" y="635.8426">podle n&#225;zvu</text></g><g id="elem_UC_003"><ellipse cx="350.033" cy="531.9098" fill="#F1F1F1" rx="93.533" ry="27.9098" style="stroke:#181818;stroke-width:0.5;"/><text fill="#000000" font-family="sans-serif" font-size="14" lengthAdjust="spacing" textLength="116" x="290.5809" y="527.2332">Vyhled&#225;v&#225;n&#237; pl&#225;n&#367;</text><text fill="#000000" font-family="sans-serif" font-size="14" lengthAdjust="spacing" textLength="70" x="313.5809" y="544.8426">podle k&#243;du</text></g><g id="elem_UC_004"><ellipse cx="349.876" cy="452.0752" fill="#F1F1F1" rx="73.376" ry="17.0752" style="stroke:#181818;stroke-width:0.5;"/><text fill="#000000" font-family="sans-serif" font-size="14" lengthAdjust="spacing" textLength="97" x="298.376" y="456.5918">Filtrov&#225;n&#237; pl&#225;n&#367;</text></g><g id="elem_UC_005"><ellipse cx="727.8525" cy="531.8705" fill="#F1F1F1" rx="74.8525" ry="17.3705" style="stroke:#181818;stroke-width:0.5;"/><text fill="#000000" font-family="sans-serif" font-size="14" lengthAdjust="spacing" textLength="101" x="674.3525" y="536.3871">Zobrazen&#237; pl&#225;nu</text></g><g id="elem_UC_006"><ellipse cx="1111.3351" cy="752.867" fill="#F1F1F1" rx="82.3351" ry="18.867" style="stroke:#181818;stroke-width:0.5;"/><text fill="#000000" font-family="sans-serif" font-size="14" lengthAdjust="spacing" textLength="120" x="1051.3351" y="756.5955">&#218;vodn&#237; text u pl&#225;nu</text></g><g id="elem_UC_007"><ellipse cx="1111.4654" cy="670.9147" fill="#F1F1F1" rx="94.9654" ry="27.9147" style="stroke:#181818;stroke-width:0.5;"/><text fill="#000000" font-family="sans-serif" font-size="14" lengthAdjust="spacing" textLength="118" x="1050.5113" y="666.3679">Kreditov&#233; statistiky</text><text fill="#000000" font-family="sans-serif" font-size="14" lengthAdjust="spacing" textLength="93" x="1063.0113" y="683.9773">u detailu pl&#225;nu</text></g><g id="elem_UC_008"><ellipse cx="1111.2736" cy="577.9547" fill="#F1F1F1" rx="137.7736" ry="29.9547" style="stroke:#181818;stroke-width:0.5;"/><text fill="#000000" font-family="sans-serif" font-size="14" lengthAdjust="spacing" textLength="191" x="1012.7736" y="573.6666">Detail p&#345;edm&#283;tu v zobrazen&#233;m</text><text fill="#000000" font-family="sans-serif" font-size="14" lengthAdjust="spacing" textLength="94" x="1061.2736" y="591.276">studijn&#237;m pl&#225;nu</text></g><g id="elem_UC_009"><ellipse cx="350.136" cy="804.9881" fill="#F1F1F1" rx="110.136" ry="27.9881" style="stroke:#181818;stroke-width:0.5;"/><text fill="#000000" font-family="sans-serif" font-size="14" lengthAdjust="spacing" textLength="139" x="277.636" y="800.7">Zobrazen&#237; rozd&#237;l&#367; mezi</text><text fill="#000000" font-family="sans-serif" font-size="14" lengthAdjust="spacing" textLength="80" x="307.136" y="818.3094">dv&#283;ma pl&#225;ny</text></g><g id="elem_UC_010"><ellipse cx="350.1901" cy="895.9817" fill="#F1F1F1" rx="108.6901" ry="27.9817" style="stroke:#181818;stroke-width:0.5;"/><text fill="#000000" font-family="sans-serif" font-size="14" lengthAdjust="spacing" textLength="137" x="278.6901" y="891.6936">Zobrazen&#237; spole&#269;n&#253;ch</text><text fill="#000000" font-family="sans-serif" font-size="14" lengthAdjust="spacing" textLength="130" x="282.1901" y="909.303">p&#345;edm&#283;t&#367; mezi pl&#225;ny</text></g><g id="elem_UC_011"><ellipse cx="350.2036" cy="714.0335" fill="#F1F1F1" rx="121.7036" ry="28.0335" style="stroke:#181818;stroke-width:0.5;"/><text fill="#000000" font-family="sans-serif" font-size="14" lengthAdjust="spacing" textLength="155" x="269.7036" y="709.7454">Vyhled&#225;v&#225;n&#237; pl&#225;n&#367; podle</text><text fill="#000000" font-family="sans-serif" font-size="14" lengthAdjust="spacing" textLength="60" x="317.2036" y="727.3548">p&#345;edm&#283;t&#367;</text></g><g id="elem_UC_012"><ellipse cx="728.2412" cy="438.9482" fill="#F1F1F1" rx="102.7412" ry="22.9482" style="stroke:#181818;stroke-width:0.5;"/><text fill="#000000" font-family="sans-serif" font-size="14" lengthAdjust="spacing" textLength="167" x="644.7412" y="442.6768">Ozna&#269;en&#237; pl&#225;nu za zvolen&#253;</text></g><g id="elem_UC_013"><ellipse cx="1111.5452" cy="484.9034" fill="#F1F1F1" rx="97.0452" ry="27.9034" style="stroke:#181818;stroke-width:0.5;"/><text fill="#000000" font-family="sans-serif" font-size="14" lengthAdjust="spacing" textLength="113" x="1055.0452" y="479.8272">Zobrazen&#237; statistik</text><text fill="#000000" font-family="sans-serif" font-size="14" lengthAdjust="spacing" textLength="121" x="1051.0452" y="497.4366">o studentech pl&#225;nu</text></g><g id="elem_UC_014"><ellipse cx="727.859" cy="629.9912" fill="#F1F1F1" rx="110.859" ry="27.9912" style="stroke:#181818;stroke-width:0.5;"/><text fill="#000000" font-family="sans-serif" font-size="14" lengthAdjust="spacing" textLength="140" x="654.859" y="625.7031">Proch&#225;zen&#237; hodnocen&#237;</text><text fill="#000000" font-family="sans-serif" font-size="14" lengthAdjust="spacing" textLength="118" x="665.859" y="643.3125">a koment&#225;&#345;&#367; pl&#225;n&#367;</text></g><g id="elem_UC_015"><ellipse cx="349.9711" cy="73.9942" fill="#F1F1F1" rx="142.9711" ry="30.9942" style="stroke:#181818;stroke-width:0.5;"/><text fill="#000000" font-family="sans-serif" font-size="14" lengthAdjust="spacing" textLength="205" x="244.4711" y="69.7061">Vlo&#382;en&#237; doporu&#269;en&#233;ho pr&#367;chodu</text><text fill="#000000" font-family="sans-serif" font-size="14" lengthAdjust="spacing" textLength="115" x="289.4711" y="87.3155">do vlastn&#237;ho pl&#225;nu</text></g><g id="elem_UC_016"><ellipse cx="1111.7076" cy="390.1415" fill="#F1F1F1" rx="148.7076" ry="32.1415" style="stroke:#181818;stroke-width:0.5;"/><text fill="#000000" font-family="sans-serif" font-size="14" lengthAdjust="spacing" textLength="220" x="998.8425" y="385.8203">Zobrazen&#237; p&#345;edm&#283;t&#367; doporu&#269;en&#253;ch</text><text fill="#000000" font-family="sans-serif" font-size="14" lengthAdjust="spacing" textLength="74" x="1071.8425" y="403.4297">ke st&#225;tnic&#237;m</text></g><g id="elem_UC_017"><ellipse cx="1111.3753" cy="302.1751" fill="#F1F1F1" rx="93.8753" ry="21.1751" style="stroke:#181818;stroke-width:0.5;"/><text fill="#000000" font-family="sans-serif" font-size="14" lengthAdjust="spacing" textLength="147" x="1037.8753" y="305.9036">Zobrazen&#237; mapy rekvizit</text></g><g id="elem_UC_018"><ellipse cx="350.2025" cy="283.1405" fill="#F1F1F1" rx="118.7025" ry="26.1405" style="stroke:#181818;stroke-width:0.5;"/><text fill="#000000" font-family="sans-serif" font-size="14" lengthAdjust="spacing" textLength="202" x="249.2025" y="286.869">Hodnocen&#237; a komentov&#225;n&#237; pl&#225;nu</text></g><g id="elem_UC_019"><ellipse cx="350.1395" cy="181.1279" fill="#F1F1F1" rx="103.6395" ry="23.1279" style="stroke:#181818;stroke-width:0.5;"/><text fill="#000000" font-family="sans-serif" font-size="14" lengthAdjust="spacing" textLength="169" x="265.6395" y="184.8564">Zobrazen&#237; zvolen&#233;ho pl&#225;nu</text></g><g id="elem_UC_020"><ellipse cx="350.1295" cy="986.9581" fill="#F1F1F1" rx="103.6295" ry="27.9581" style="stroke:#181818;stroke-width:0.5;"/><text fill="#000000" font-family="sans-serif" font-size="14" lengthAdjust="spacing" textLength="130" x="282.1295" y="982.67">Historie zobrazen&#253;ch</text><text fill="#000000" font-family="sans-serif" font-size="14" lengthAdjust="spacing" textLength="35" x="329.6295" y="1000.2794">pl&#225;n&#367;</text></g><!--entity AC_S--><g id="elem_AC_S"><ellipse cx="75" cy="461.5" fill="#F1F1F1" rx="8" ry="8" style="stroke:#181818;stroke-width:0.5;"/><path d="M75,469.5 L75,496.5 M62,477.5 L88,477.5 M75,496.5 L62,511.5 M75,496.5 L88,511.5 " fill="none" style="stroke:#181818;stroke-width:0.5;"/><text fill="#000000" font-family="sans-serif" font-size="14" lengthAdjust="spacing" textLength="49" x="50.5" y="527.5332">Student</text></g><!--entity AC_NS--><g id="elem_AC_NS"><ellipse cx="75" cy="774.5" fill="#F1F1F1" rx="8" ry="8" style="stroke:#181818;stroke-width:0.5;"/><path d="M75,782.5 L75,809.5 M62,790.5 L88,790.5 M75,809.5 L62,824.5 M75,809.5 L88,824.5 " fill="none" style="stroke:#181818;stroke-width:0.5;"/><text fill="#000000" font-family="sans-serif" font-size="14" lengthAdjust="spacing" textLength="138" x="6" y="840.5332">Nerozhodnut&#253; student</text></g><!--entity AC_RS--><g id="elem_AC_RS"><ellipse cx="75" cy="343.5" fill="#F1F1F1" rx="8" ry="8" style="stroke:#181818;stroke-width:0.5;"/><path d="M75,351.5 L75,378.5 M62,359.5 L88,359.5 M75,378.5 L62,393.5 M75,378.5 L88,393.5 " fill="none" style="stroke:#181818;stroke-width:0.5;"/><text fill="#000000" font-family="sans-serif" font-size="14" lengthAdjust="spacing" textLength="126" x="12" y="409.5332">Rozhodnut&#253; student</text></g><!--reverse link AC_S to AC_NS--><g id="link_AC_S_AC_NS"><path d="M75,549.05 C75,627.32 75,687.6 75,765.88 " fill="none" id="AC_S-backto-AC_NS" style="stroke:#181818;stroke-width:1.0;"/><polygon fill="none" points="75,531.05,69,549.05,81,549.05,75,531.05" style="stroke:#181818;stroke-width:1.0;"/></g><!--link AC_RS to AC_S--><g id="link_AC_RS_AC_S"><path d="M75,413.1 C75,426.34 75,421.58 75,434.82 " fill="none" id="AC_RS-to-AC_S" style="stroke:#181818;stroke-width:1.0;"/><polygon fill="none" points="75,452.82,81,434.82,69,434.82,75,452.82" style="stroke:#181818;stroke-width:1.0;"/></g><!--link AC_S to UC_001--><g id="link_AC_S_UC_001"><path d="M99.58,471.83 C120.33,455.01 151.98,431.53 183,417 C207.47,405.54 229.5889,398.0921 255.4489,391.2621 " fill="none" id="AC_S-to-UC_001" style="stroke:#181818;stroke-width:1.0;"/><polygon fill="#181818" points="261.25,389.73,251.5269,388.1608,256.4158,391.0068,253.5698,395.8956,261.25,389.73" style="stroke:#181818;stroke-width:1.0;"/></g><!--link AC_S to UC_002--><g id="link_AC_S_UC_002"><path d="M99.53,515.35 C120,534.45 151.29,560.86 183,577 C210.18,590.84 236.2407,599.4885 264.7507,606.6485 " fill="none" id="AC_S-to-UC_002" style="stroke:#181818;stroke-width:1.0;"/><polygon fill="#181818" points="270.57,608.11,262.8154,602.0383,265.7206,606.8921,260.8668,609.7973,270.57,608.11" style="stroke:#181818;stroke-width:1.0;"/></g><!--link AC_S to UC_003--><g id="link_AC_S_UC_003"><path d="M99.75,495.48 C136.4,500.85 202.5434,510.5403 259.8134,518.9303 " fill="none" id="AC_S-to-UC_003" style="stroke:#181818;stroke-width:1.0;"/><polygon fill="#181818" points="265.75,519.8,257.4249,514.5377,260.8028,519.0752,256.2652,522.4532,265.75,519.8" style="stroke:#181818;stroke-width:1.0;"/></g><!--link AC_S to UC_004--><g id="link_AC_S_UC_004"><path d="M99.75,488.52 C141.2,482.45 222.0434,470.5997 281.4334,461.8997 " fill="none" id="AC_S-to-UC_004" style="stroke:#181818;stroke-width:1.0;"/><polygon fill="#181818" points="287.37,461.03,277.8853,458.3767,282.4228,461.7547,279.0448,466.2922,287.37,461.03" style="stroke:#181818;stroke-width:1.0;"/></g><!--link AC_NS to UC_009--><g id="link_AC_NS_UC_009"><path d="M144.19,805 C173.09,805 201.49,805 233.78,805 " fill="none" id="AC_NS-to-UC_009" style="stroke:#181818;stroke-width:1.0;"/><polygon fill="#181818" points="239.78,805,230.78,801,234.78,805,230.78,809,239.78,805" style="stroke:#181818;stroke-width:1.0;"/></g><!--link AC_NS to UC_010--><g id="link_AC_NS_UC_010"><path d="M144.22,836.03 C156.98,841.34 170.3,846.57 183,851 C210.91,860.73 236.258,868.1315 263.968,875.4315 " fill="none" id="AC_NS-to-UC_010" style="stroke:#181818;stroke-width:1.0;"/><polygon fill="#181818" points="269.77,876.96,262.0859,870.7992,264.935,875.6862,260.0479,878.5353,269.77,876.96" style="stroke:#181818;stroke-width:1.0;"/></g><!--link AC_NS to UC_011--><g id="link_AC_NS_UC_011"><path d="M144.22,773.97 C156.98,768.66 170.3,763.43 183,759 C209.5,749.76 233.1316,742.7822 259.7516,735.7022 " fill="none" id="AC_NS-to-UC_011" style="stroke:#181818;stroke-width:1.0;"/><polygon fill="#181818" points="265.55,734.16,255.8242,732.6077,260.718,735.4451,257.8805,740.3389,265.55,734.16" style="stroke:#181818;stroke-width:1.0;"/></g><!--link AC_NS to UC_020--><g id="link_AC_NS_UC_020"><path d="M97.01,844.07 C115.64,875.08 145.67,917.21 183,942 C205.51,956.95 227.0401,965.4516 252.9801,972.1416 " fill="none" id="AC_NS-to-UC_020" style="stroke:#181818;stroke-width:1.0;"/><polygon fill="#181818" points="258.79,973.64,251.0741,967.5192,253.9484,972.3913,249.0762,975.2657,258.79,973.64" style="stroke:#181818;stroke-width:1.0;"/></g><!--link AC_RS to UC_019--><g id="link_AC_RS_UC_019"><path d="M98.39,334.97 C117.42,304.94 147.3,264.4 183,239 C210.36,219.53 239.1066,207.7924 269.5566,198.7824 " fill="none" id="AC_RS-to-UC_019" style="stroke:#181818;stroke-width:1.0;"/><polygon fill="#181818" points="275.31,197.08,265.5449,195.798,270.5155,198.4987,267.8148,203.4692,275.31,197.08" style="stroke:#181818;stroke-width:1.0;"/></g><!--reverse link UC_002 to UC_005--><g id="link_UC_002_UC_005"><path d="M429.3316,604.0385 C503.1616,586.1685 609.98,560.32 675.26,544.52 " fill="none" id="UC_002-backto-UC_005" style="stroke:#181818;stroke-width:1.0;stroke-dasharray:7.0,7.0;"/><polygon fill="#181818" points="423.5,605.45,433.1884,607.2205,428.3597,604.2738,431.3064,599.445,423.5,605.45" style="stroke:#181818;stroke-width:1.0;"/><text fill="#000000" font-family="sans-serif" font-size="13" lengthAdjust="spacing" textLength="60" x="525" y="563.4951">&#171;extends&#187;</text></g><!--reverse link UC_003 to UC_005--><g id="link_UC_003_UC_005"><path d="M449.94,532 C514.31,532 592.86,532 652.74,532 " fill="none" id="UC_003-backto-UC_005" style="stroke:#181818;stroke-width:1.0;stroke-dasharray:7.0,7.0;"/><polygon fill="#181818" points="443.94,532,452.94,536,448.94,532,452.94,528,443.94,532" style="stroke:#181818;stroke-width:1.0;"/><text fill="#000000" font-family="sans-serif" font-size="13" lengthAdjust="spacing" textLength="60" x="525" y="528.4951">&#171;extends&#187;</text></g><!--reverse link UC_004 to UC_005--><g id="link_UC_004_UC_005"><path d="M410.7387,464.7085 C481.8087,479.8285 600.38,505.06 672.01,520.3 " fill="none" id="UC_004-backto-UC_005" style="stroke:#181818;stroke-width:1.0;stroke-dasharray:7.0,7.0;"/><polygon fill="#181818" points="404.87,463.46,412.8406,469.2453,409.7605,464.5005,414.5053,461.4204,404.87,463.46" style="stroke:#181818;stroke-width:1.0;"/><text fill="#000000" font-family="sans-serif" font-size="13" lengthAdjust="spacing" textLength="60" x="525" y="486.4951">&#171;extends&#187;</text></g><!--reverse link UC_011 to UC_005--><g id="link_UC_011_UC_005"><path d="M435.1484,690.7923 C456.2184,683.9723 473,677.53 493,668 C537.96,646.59 546.32,635.73 587,607 C600.72,597.31 602.66,592.75 617,584 C640.35,569.75 668.23,556.61 690.07,547.11 " fill="none" id="UC_011-backto-UC_005" style="stroke:#181818;stroke-width:1.0;stroke-dasharray:7.0,7.0;"/><polygon fill="#181818" points="429.44,692.64,439.2344,693.674,434.197,691.1002,436.7708,686.0628,429.44,692.64" style="stroke:#181818;stroke-width:1.0;"/><text fill="#000000" font-family="sans-serif" font-size="13" lengthAdjust="spacing" textLength="60" x="525" y="603.4951">&#171;extends&#187;</text></g><!--link UC_005 to UC_006--><g id="link_UC_005_UC_006"><path d="M774.14,545.85 C795.74,554.22 820.78,566.68 839,584 C859.46,603.46 851,618.25 869,640 C903.25,681.39 914.93,692.01 963,716 C987.69,728.32 1010.9393,735.4648 1036.7493,741.1248 " fill="none" id="UC_005-to-UC_006" style="stroke:#181818;stroke-width:1.0;stroke-dasharray:7.0,7.0;"/><polygon fill="#181818" points="1042.61,742.41,1034.6757,736.575,1037.7261,741.339,1032.9621,744.3893,1042.61,742.41" style="stroke:#181818;stroke-width:1.0;"/><text fill="#000000" font-family="sans-serif" font-size="13" lengthAdjust="spacing" textLength="62" x="870" y="636.4951">&#171;includes&#187;</text></g><!--link UC_005 to UC_007--><g id="link_UC_005_UC_007"><path d="M766.71,547.15 C794.88,558.45 834.33,574.24 869,588 C910.73,604.56 920.65,610.08 963,625 C989.19,634.22 1012.5737,641.7507 1037.9737,649.5407 " fill="none" id="UC_005-to-UC_007" style="stroke:#181818;stroke-width:1.0;stroke-dasharray:7.0,7.0;"/><polygon fill="#181818" points="1043.71,651.3,1036.2784,644.8369,1038.9298,649.8339,1033.9327,652.4853,1043.71,651.3" style="stroke:#181818;stroke-width:1.0;"/><text fill="#000000" font-family="sans-serif" font-size="13" lengthAdjust="spacing" textLength="62" x="870" y="584.4951">&#171;includes&#187;</text></g><!--link UC_005 to UC_008--><g id="link_UC_005_UC_008"><path d="M787.79,542.57 C812.77,546.82 842.25,551.53 869,555 C905.65,559.75 939.5766,563.3856 976.1966,566.8456 " fill="none" id="UC_005-to-UC_008" style="stroke:#181818;stroke-width:1.0;stroke-dasharray:7.0,7.0;"/><polygon fill="#181818" points="982.17,567.41,973.5862,562.5812,977.1922,566.9397,972.8336,570.5457,982.17,567.41" style="stroke:#181818;stroke-width:1.0;"/><text fill="#000000" font-family="sans-serif" font-size="13" lengthAdjust="spacing" textLength="62" x="870" y="551.4951">&#171;includes&#187;</text></g><!--link UC_005 to UC_013--><g id="link_UC_005_UC_013"><path d="M794.58,523.92 C857.32,516.19 946.455,505.2139 1015.915,496.6539 " fill="none" id="UC_005-to-UC_013" style="stroke:#181818;stroke-width:1.0;stroke-dasharray:7.0,7.0;"/><polygon fill="#181818" points="1021.87,495.92,1012.4483,493.0508,1016.9075,496.5316,1013.4268,500.9908,1021.87,495.92" style="stroke:#181818;stroke-width:1.0;"/><text fill="#000000" font-family="sans-serif" font-size="13" lengthAdjust="spacing" textLength="62" x="870" y="504.4951">&#171;includes&#187;</text></g><!--link UC_005 to UC_016--><g id="link_UC_005_UC_016"><path d="M765.63,516.68 C811.48,497.69 892.56,464.67 963,439 C983.92,431.38 1000.9774,425.4758 1022.2074,418.4058 " fill="none" id="UC_005-to-UC_016" style="stroke:#181818;stroke-width:1.0;stroke-dasharray:7.0,7.0;"/><polygon fill="#181818" points="1027.9,416.51,1018.0972,415.5585,1023.1561,418.0898,1020.6249,423.1487,1027.9,416.51" style="stroke:#181818;stroke-width:1.0;"/><text fill="#000000" font-family="sans-serif" font-size="13" lengthAdjust="spacing" textLength="62" x="870" y="447.4951">&#171;includes&#187;</text></g><!--link UC_005 to UC_017--><g id="link_UC_005_UC_017"><path d="M773.21,517.91 C794.96,509.3 820.42,496.53 839,479 C858.97,460.16 851.92,446.5 869,425 C904.04,380.9 913.4,366.69 963,340 C985.01,328.16 1005.0257,321.2805 1028.8957,315.5505 " fill="none" id="UC_005-to-UC_017" style="stroke:#181818;stroke-width:1.0;stroke-dasharray:7.0,7.0;"/><polygon fill="#181818" points="1034.73,314.15,1025.0449,312.3613,1029.8681,315.3171,1026.9123,320.1403,1034.73,314.15" style="stroke:#181818;stroke-width:1.0;"/><text fill="#000000" font-family="sans-serif" font-size="13" lengthAdjust="spacing" textLength="62" x="870" y="356.4951">&#171;includes&#187;</text></g><!--reverse link UC_005 to UC_012--><g id="link_UC_005_UC_012"><path d="M728,508.07 C728,493.29 728,478.22 728,462.17 " fill="none" id="UC_005-backto-UC_012" style="stroke:#181818;stroke-width:1.0;stroke-dasharray:7.0,7.0;"/><polygon fill="#181818" points="728,514.07,732,505.07,728,509.07,724,505.07,728,514.07" style="stroke:#181818;stroke-width:1.0;"/><text fill="#000000" font-family="sans-serif" font-size="13" lengthAdjust="spacing" textLength="60" x="686" y="493.7451">&#171;extends&#187;</text></g><!--link UC_014 to UC_005--><g id="link_UC_014_UC_005"><path d="M728,601.92 C728,585.06 728,570.14 728,555.6 " fill="none" id="UC_014-to-UC_005" style="stroke:#181818;stroke-width:1.0;stroke-dasharray:7.0,7.0;"/><polygon fill="#181818" points="728,549.6,724,558.6,728,554.6,732,558.6,728,549.6" style="stroke:#181818;stroke-width:1.0;"/><text fill="#000000" font-family="sans-serif" font-size="13" lengthAdjust="spacing" textLength="60" x="686" y="581.2451">&#171;extends&#187;</text></g><!--reverse link UC_019 to UC_015--><g id="link_UC_019_UC_015"><path d="M350,151.78 C350,136.42 350,122.08 350,105.29 " fill="none" id="UC_019-backto-UC_015" style="stroke:#181818;stroke-width:1.0;stroke-dasharray:7.0,7.0;"/><polygon fill="#181818" points="350,157.78,354,148.78,350,152.78,346,148.78,350,157.78" style="stroke:#181818;stroke-width:1.0;"/><text fill="#000000" font-family="sans-serif" font-size="13" lengthAdjust="spacing" textLength="60" x="308" y="136.9951">&#171;extends&#187;</text></g><!--link UC_018 to UC_019--><g id="link_UC_018_UC_019"><path d="M350,257 C350,240.71 350,225.9 350,210.17 " fill="none" id="UC_018-to-UC_019" style="stroke:#181818;stroke-width:1.0;stroke-dasharray:7.0,7.0;"/><polygon fill="#181818" points="350,204.17,346,213.17,350,209.17,354,213.17,350,204.17" style="stroke:#181818;stroke-width:1.0;"/><text fill="#000000" font-family="sans-serif" font-size="13" lengthAdjust="spacing" textLength="60" x="308" y="235.9951">&#171;extends&#187;</text></g><!--link UC_019 to UC_005--><g id="link_UC_019_UC_005"><path d="M419.76,198.16 C445.03,207.11 472.47,220.22 493,239 C581.59,320.03 530.93,395.3 617,479 C635.24,496.73 654.9654,507.2962 676.7054,515.8362 " fill="none" id="UC_019-to-UC_005" style="stroke:#181818;stroke-width:1.0;stroke-dasharray:7.0,7.0;"/><polygon fill="#181818" points="682.29,518.03,675.3756,511.0163,677.6362,516.2019,672.4506,518.4624,682.29,518.03" style="stroke:#181818;stroke-width:1.0;"/><text fill="#000000" font-family="sans-serif" font-size="13" lengthAdjust="spacing" textLength="62" x="524" y="274.4951">&#171;includes&#187;</text></g><!--SRC=[bPIzRjim4CTtFSKXkmtB7qbS10QA54MA0caH8naA0m4hiX5hYHGeIgZLzX7o0AadZnw239tJHVPxbP92VT0Mt7eoJx_xyq_U7JtoHOBa8EYTAm5JGHn9ERCiv4Wku6Wg8qoOF08KmklpswcENnB14vTZ5idq6S8cTLbYL-tGrTIoijqGk_E88eapVJU53cGxqgyiVOJ0IrTiSGJVBL2_A2GE2XLv7V242xPPPWn38CWyfWcLYncB2SGU2gNwuXVfKRxTzVbjhsStPMuMhaTmkeeLfJVRFirOmB7omz9L4jUI-_-JF4z_urhke9dxbdfIy6Pc1G-Ry2V-MQ24b6XDTjGaqr-nkcd5IV9DGhI37pVnzu9WAfMDjIeCaZIKTAvkC09C9ABURlv9C_zDZa6mVI3Otonb134askpQdx5Grt6t4gUjPrHDXTD7R_i4FadeZE5ui_HHsGbQODmg40RS8vjxbZuxhYg7TlSYQ0hPlNyfA-HLRQXL2aPNVKWOsjpNwWK9WYHMffIbAglVVW1TZ1dZUcI8uvftQ1jDzL5mnrKzcsja8yUTxEzCpSUS-qeZNMqVigCO_MOR_NRZyUsVN0JpW8ieFylQvH28xPEZX2DL55vEMVR1C3PgR-1QDMhgUQNcH1qsNKb67TKnbTfngvgFWaKv-rM2qQONvLM0led6wDMCjtVbI_tMUqvhTEA5AXqNb5IZKFIXSUlzdlNJilAN4ZfUvyUaU5lpLn4weWnaaJmmqKzO4T3hlh4U6EjXkOcEZ8s0cW0ZO1i1vLKRqyZOieeN2BfHLrk1Lt1sffuUmd0ucUm2WqF0y01WsmPG4bXB7ES4POwdvgQkKH8d1udJGuGzE4WSz67l-B2ATm6wdZOosdCVzX2weWqeY54bOO_tIPnM4lk1CNIRMzHi_WK0]--></g></svg>