<?xml version="1.0" encoding="us-ascii" standalone="no"?>
<svg xmlns="http://www.w3.org/2000/svg" xmlns:xlink="http://www.w3.org/1999/xlink"
    contentStyleType="text/css" height="946px" preserveAspectRatio="none"
    style="width:1282px;height:946px;background:#FFFFFF;" version="1.1" viewBox="0 0 1282 946"
    width="1282px" zoomAndPan="magnify">
    <style>
        :target ellipse {
            fill: #00c3ff !important;
        }
    </style>
    <defs />
    <g><!--cluster
        RecSIS - Studijn? pl?ny-->
        <g id="cluster_RecSIS - Studijn&#237; pl&#225;ny">
            <rect fill="none" height="933" rx="2.5" ry="2.5"
                style="stroke:#181818;stroke-width:1.0;" width="1085" x="191" y="7" />
            <text fill="#000000" font-family="sans-serif" font-size="14" font-weight="bold"
                lengthAdjust="spacing" textLength="156" x="655.5" y="23.5332">RecSIS - Studijn&#237;
                pl&#225;ny</text>
        </g>
        <g id="elem_UC_001">
            <ellipse cx="349.9738" cy="623.0062" fill="#F1F1F1" rx="114.4738" ry="28.0062"
                style="stroke:#181818;stroke-width:0.5;" />
            <text fill="#000000" font-family="sans-serif" font-size="14" lengthAdjust="spacing"
                textLength="145" x="274.4738" y="618.7181">Upozorn&#283;n&#237; na rekvizity</text>
            <text fill="#000000" font-family="sans-serif" font-size="14" lengthAdjust="spacing"
                textLength="109" x="292.4738" y="636.3275">ve vlastn&#237;m pl&#225;nu</text>
        </g>
        <g id="elem_UC_002">
            <ellipse cx="350.033" cy="531.9098" fill="#F1F1F1" rx="93.533" ry="27.9098"
                style="stroke:#181818;stroke-width:0.5;" />
            <text fill="#000000" font-family="sans-serif" font-size="14" lengthAdjust="spacing"
                textLength="116" x="290.5809" y="527.2332">Vyhled&#225;v&#225;n&#237;
                pl&#225;n&#367;</text>
            <text fill="#000000" font-family="sans-serif" font-size="14" lengthAdjust="spacing"
                textLength="76" x="310.5809" y="544.8426">podle n&#225;zvu</text>
        </g>
        <g id="elem_UC_003">
            <ellipse cx="350.033" cy="440.9098" fill="#F1F1F1" rx="93.533" ry="27.9098"
                style="stroke:#181818;stroke-width:0.5;" />
            <text fill="#000000" font-family="sans-serif" font-size="14" lengthAdjust="spacing"
                textLength="116" x="290.5809" y="436.2332">Vyhled&#225;v&#225;n&#237;
                pl&#225;n&#367;</text>
            <text fill="#000000" font-family="sans-serif" font-size="14" lengthAdjust="spacing"
                textLength="70" x="313.5809" y="453.8426">podle k&#243;du</text>
        </g>
        <g id="elem_UC_004">
            <ellipse cx="349.876" cy="361.0752" fill="#F1F1F1" rx="73.376" ry="17.0752"
                style="stroke:#181818;stroke-width:0.5;" />
            <text fill="#000000" font-family="sans-serif" font-size="14" lengthAdjust="spacing"
                textLength="97" x="298.376" y="365.5918">Filtrov&#225;n&#237; pl&#225;n&#367;</text>
        </g>
        <g id="elem_UC_005">
            <ellipse cx="727.8525" cy="440.8705" fill="#F1F1F1" rx="74.8525" ry="17.3705"
                style="stroke:#181818;stroke-width:0.5;" />
            <text fill="#000000" font-family="sans-serif" font-size="14" lengthAdjust="spacing"
                textLength="101" x="674.3525" y="445.3871">Zobrazen&#237; pl&#225;nu</text>
        </g>
        <g id="elem_UC_006">
            <ellipse cx="1111.3351" cy="661.867" fill="#F1F1F1" rx="82.3351" ry="18.867"
                style="stroke:#181818;stroke-width:0.5;" />
            <text fill="#000000" font-family="sans-serif" font-size="14" lengthAdjust="spacing"
                textLength="120" x="1051.3351" y="665.5955">&#218;vodn&#237; text u pl&#225;nu</text>
        </g>
        <g id="elem_UC_007">
            <ellipse cx="1111.4654" cy="579.9147" fill="#F1F1F1" rx="94.9654" ry="27.9147"
                style="stroke:#181818;stroke-width:0.5;" />
            <text fill="#000000" font-family="sans-serif" font-size="14" lengthAdjust="spacing"
                textLength="118" x="1050.5113" y="575.3679">Kreditov&#233; statistiky</text>
            <text fill="#000000" font-family="sans-serif" font-size="14" lengthAdjust="spacing"
                textLength="93" x="1063.0113" y="592.9773">u detailu pl&#225;nu</text>
        </g>
        <g id="elem_UC_008">
            <ellipse cx="1111.2736" cy="486.9547" fill="#F1F1F1" rx="137.7736" ry="29.9547"
                style="stroke:#181818;stroke-width:0.5;" />
            <text fill="#000000" font-family="sans-serif" font-size="14" lengthAdjust="spacing"
                textLength="191" x="1012.7736" y="482.6666">Detail p&#345;edm&#283;tu v
                zobrazen&#233;m</text>
            <text fill="#000000" font-family="sans-serif" font-size="14" lengthAdjust="spacing"
                textLength="94" x="1061.2736" y="500.276">studijn&#237;m pl&#225;nu</text>
        </g>
        <g id="elem_UC_009">
            <ellipse cx="350.136" cy="804.9881" fill="#F1F1F1" rx="110.136" ry="27.9881"
                style="stroke:#181818;stroke-width:0.5;" />
            <text fill="#000000" font-family="sans-serif" font-size="14" lengthAdjust="spacing"
                textLength="139" x="277.636" y="800.7">Zobrazen&#237; rozd&#237;l&#367; mezi</text>
            <text fill="#000000" font-family="sans-serif" font-size="14" lengthAdjust="spacing"
                textLength="80" x="307.136" y="818.3094">dv&#283;ma pl&#225;ny</text>
        </g>
        <g id="elem_UC_010">
            <ellipse cx="350.1901" cy="895.9817" fill="#F1F1F1" rx="108.6901" ry="27.9817"
                style="stroke:#181818;stroke-width:0.5;" />
            <text fill="#000000" font-family="sans-serif" font-size="14" lengthAdjust="spacing"
                textLength="137" x="278.6901" y="891.6936">Zobrazen&#237; spole&#269;n&#253;ch</text>
            <text fill="#000000" font-family="sans-serif" font-size="14" lengthAdjust="spacing"
                textLength="130" x="282.1901" y="909.303">p&#345;edm&#283;t&#367; mezi pl&#225;ny</text>
        </g>
        <g id="elem_UC_011">
            <ellipse cx="350.2036" cy="714.0335" fill="#F1F1F1" rx="121.7036" ry="28.0335"
                style="stroke:#181818;stroke-width:0.5;" />
            <text fill="#000000" font-family="sans-serif" font-size="14" lengthAdjust="spacing"
                textLength="155" x="269.7036" y="709.7454">Vyhled&#225;v&#225;n&#237;
                pl&#225;n&#367; podle</text>
            <text fill="#000000" font-family="sans-serif" font-size="14" lengthAdjust="spacing"
                textLength="60" x="317.2036" y="727.3548">p&#345;edm&#283;t&#367;</text>
        </g>
        <g id="elem_UC_012">
            <ellipse cx="728.2412" cy="347.9482" fill="#F1F1F1" rx="102.7412" ry="22.9482"
                style="stroke:#181818;stroke-width:0.5;" />
            <text fill="#000000" font-family="sans-serif" font-size="14" lengthAdjust="spacing"
                textLength="167" x="644.7412" y="351.6768">Ozna&#269;en&#237; pl&#225;nu za
                zvolen&#253;</text>
        </g>
        <g id="elem_UC_013">
            <ellipse cx="1111.5452" cy="393.9034" fill="#F1F1F1" rx="97.0452" ry="27.9034"
                style="stroke:#181818;stroke-width:0.5;" />
            <text fill="#000000" font-family="sans-serif" font-size="14" lengthAdjust="spacing"
                textLength="113" x="1055.0452" y="388.8272">Zobrazen&#237; statistik</text>
            <text fill="#000000" font-family="sans-serif" font-size="14" lengthAdjust="spacing"
                textLength="121" x="1051.0452" y="406.4366">o studentech pl&#225;nu</text>
        </g>
        <g id="elem_UC_014">
            <ellipse cx="727.859" cy="538.9912" fill="#F1F1F1" rx="110.859" ry="27.9912"
                style="stroke:#181818;stroke-width:0.5;" />
            <text fill="#000000" font-family="sans-serif" font-size="14" lengthAdjust="spacing"
                textLength="140" x="654.859" y="534.7031">Proch&#225;zen&#237; hodnocen&#237;</text>
            <text fill="#000000" font-family="sans-serif" font-size="14" lengthAdjust="spacing"
                textLength="118" x="665.859" y="552.3125">a koment&#225;&#345;&#367; pl&#225;n&#367;</text>
        </g>
        <g id="elem_UC_015">
            <ellipse cx="349.9711" cy="73.9942" fill="#F1F1F1" rx="142.9711" ry="30.9942"
                style="stroke:#181818;stroke-width:0.5;" />
            <text fill="#000000" font-family="sans-serif" font-size="14" lengthAdjust="spacing"
                textLength="205" x="244.4711" y="69.7061">Vlo&#382;en&#237; doporu&#269;en&#233;ho
                pr&#367;chodu</text>
            <text fill="#000000" font-family="sans-serif" font-size="14" lengthAdjust="spacing"
                textLength="115" x="289.4711" y="87.3155">do vlastn&#237;ho pl&#225;nu</text>
        </g>
        <g id="elem_UC_016">
            <ellipse cx="1111.7076" cy="299.1415" fill="#F1F1F1" rx="148.7076" ry="32.1415"
                style="stroke:#181818;stroke-width:0.5;" />
            <text fill="#000000" font-family="sans-serif" font-size="14" lengthAdjust="spacing"
                textLength="220" x="998.8425" y="294.8203">Zobrazen&#237; p&#345;edm&#283;t&#367;
                doporu&#269;en&#253;ch</text>
            <text fill="#000000" font-family="sans-serif" font-size="14" lengthAdjust="spacing"
                textLength="74" x="1071.8425" y="312.4297">ke st&#225;tnic&#237;m</text>
        </g>
        <g id="elem_UC_017">
            <ellipse cx="1111.3753" cy="211.1751" fill="#F1F1F1" rx="93.8753" ry="21.1751"
                style="stroke:#181818;stroke-width:0.5;" />
            <text fill="#000000" font-family="sans-serif" font-size="14" lengthAdjust="spacing"
                textLength="147" x="1037.8753" y="214.9036">Zobrazen&#237; mapy rekvizit</text>
        </g>
        <g id="elem_UC_018">
            <ellipse cx="350.2025" cy="283.1405" fill="#F1F1F1" rx="118.7025" ry="26.1405"
                style="stroke:#181818;stroke-width:0.5;" />
            <text fill="#000000" font-family="sans-serif" font-size="14" lengthAdjust="spacing"
                textLength="202" x="249.2025" y="286.869">Hodnocen&#237; a komentov&#225;n&#237;
                pl&#225;nu</text>
        </g>
        <g id="elem_UC_019">
            <ellipse cx="350.1395" cy="181.1279" fill="#F1F1F1" rx="103.6395" ry="23.1279"
                style="stroke:#181818;stroke-width:0.5;" />
            <text fill="#000000" font-family="sans-serif" font-size="14" lengthAdjust="spacing"
                textLength="169" x="265.6395" y="184.8564">Zobrazen&#237; zvolen&#233;ho pl&#225;nu</text>
        </g><!--entity
        AC_S-->
        <g id="elem_AC_S">
            <ellipse cx="75" cy="456.5" fill="#F1F1F1" rx="8" ry="8"
                style="stroke:#181818;stroke-width:0.5;" />
            <path
                d="M75,464.5 L75,491.5 M62,472.5 L88,472.5 M75,491.5 L62,506.5 M75,491.5 L88,506.5 "
                fill="none" style="stroke:#181818;stroke-width:0.5;" />
            <text fill="#000000" font-family="sans-serif" font-size="14" lengthAdjust="spacing"
                textLength="49" x="50.5" y="522.5332">Student</text>
        </g><!--entity
        AC_NS-->
        <g id="elem_AC_NS">
            <ellipse cx="75" cy="741.5" fill="#F1F1F1" rx="8" ry="8"
                style="stroke:#181818;stroke-width:0.5;" />
            <path
                d="M75,749.5 L75,776.5 M62,757.5 L88,757.5 M75,776.5 L62,791.5 M75,776.5 L88,791.5 "
                fill="none" style="stroke:#181818;stroke-width:0.5;" />
            <text fill="#000000" font-family="sans-serif" font-size="14" lengthAdjust="spacing"
                textLength="138" x="6" y="807.5332">Nerozhodnut&#253; student</text>
        </g><!--entity
        AC_RS-->
        <g id="elem_AC_RS">
            <ellipse cx="75" cy="338.5" fill="#F1F1F1" rx="8" ry="8"
                style="stroke:#181818;stroke-width:0.5;" />
            <path
                d="M75,346.5 L75,373.5 M62,354.5 L88,354.5 M75,373.5 L62,388.5 M75,373.5 L88,388.5 "
                fill="none" style="stroke:#181818;stroke-width:0.5;" />
            <text fill="#000000" font-family="sans-serif" font-size="14" lengthAdjust="spacing"
                textLength="126" x="12" y="404.5332">Rozhodnut&#253; student</text>
        </g><!--reverse
        link AC_S to AC_NS-->
        <g id="link_AC_S_AC_NS">
            <path d="M75,544.36 C75,613.16 75,663.96 75,732.76 " fill="none" id="AC_S-backto-AC_NS"
                style="stroke:#181818;stroke-width:1.0;" />
            <polygon fill="none" points="75,526.36,69,544.36,81,544.36,75,526.36"
                style="stroke:#181818;stroke-width:1.0;" />
        </g><!--link
        AC_RS to AC_S-->
        <g id="link_AC_RS_AC_S">
            <path d="M75,408.1 C75,421.34 75,416.58 75,429.82 " fill="none" id="AC_RS-to-AC_S"
                style="stroke:#181818;stroke-width:1.0;" />
            <polygon fill="none" points="75,447.82,81,429.82,69,429.82,75,447.82"
                style="stroke:#181818;stroke-width:1.0;" />
        </g><!--link
        AC_S to UC_001-->
        <g id="link_AC_S_UC_001">
            <path
                d="M99.68,512.19 C120,532.42 151,560.14 183,577 C206.68,589.47 228.2973,597.2866 253.9373,604.2066 "
                fill="none" id="AC_S-to-UC_001" style="stroke:#181818;stroke-width:1.0;" />
            <polygon fill="#181818"
                points="259.73,605.77,252.0832,599.5631,254.9027,604.4672,249.9986,607.2867,259.73,605.77"
                style="stroke:#181818;stroke-width:1.0;" />
        </g><!--link
        AC_S to UC_002-->
        <g id="link_AC_S_UC_002">
            <path d="M99.75,490.91 C136.79,497.02 204.0999,508.1138 261.6499,517.6038 " fill="none"
                id="AC_S-to-UC_002" style="stroke:#181818;stroke-width:1.0;" />
            <polygon fill="#181818"
                points="267.57,518.58,259.3407,513.169,262.6366,517.7665,258.0391,521.0624,267.57,518.58"
                style="stroke:#181818;stroke-width:1.0;" />
        </g><!--link
        AC_S to UC_003-->
        <g id="link_AC_S_UC_003">
            <path d="M99.75,483 C136.92,476.74 204.6134,465.3267 262.2534,455.6167 " fill="none"
                id="AC_S-to-UC_003" style="stroke:#181818;stroke-width:1.0;" />
            <polygon fill="#181818"
                points="268.17,454.62,258.6306,452.1706,263.2395,455.4506,259.9595,460.0595,268.17,454.62"
                style="stroke:#181818;stroke-width:1.0;" />
        </g><!--link
        AC_S to UC_004-->
        <g id="link_AC_S_UC_004">
            <path
                d="M99.95,465.28 C128.49,439.58 173.54,399.64 183,395 C213.37,380.1 244.0277,372.629 275.1077,367.919 "
                fill="none" id="AC_S-to-UC_004" style="stroke:#181818;stroke-width:1.0;" />
            <polygon fill="#181818"
                points="281.04,367.02,271.5423,364.4137,276.0964,367.7692,272.7409,372.3233,281.04,367.02"
                style="stroke:#181818;stroke-width:1.0;" />
        </g><!--link
        AC_NS to UC_009-->
        <g id="link_AC_NS_UC_009">
            <path d="M144.19,780.24 C176.25,784.12 209.1235,788.0891 244.3235,792.3491 " fill="none"
                id="AC_NS-to-UC_009" style="stroke:#181818;stroke-width:1.0;" />
            <polygon fill="#181818"
                points="250.28,793.07,241.8258,788.0177,245.3162,792.4693,240.8646,795.9597,250.28,793.07"
                style="stroke:#181818;stroke-width:1.0;" />
        </g><!--link
        AC_NS to UC_010-->
        <g id="link_AC_NS_UC_010">
            <path
                d="M120.98,811.02 C139.25,825.26 161.17,840.45 183,851 C207.87,863.02 230.6337,870.7178 256.9737,877.5778 "
                fill="none" id="AC_NS-to-UC_010" style="stroke:#181818;stroke-width:1.0;" />
            <polygon fill="#181818"
                points="262.78,879.09,255.0787,872.9508,257.9414,877.8298,253.0624,880.6926,262.78,879.09"
                style="stroke:#181818;stroke-width:1.0;" />
        </g><!--reverse
        link UC_011 to AC_NS-->
        <g id="link_UC_011_AC_NS">
            <path d="M254.1907,734.1456 C216.5407,742.1356 179.25,750.06 144.19,757.51 " fill="none"
                id="UC_011-backto-AC_NS" style="stroke:#181818;stroke-width:1.0;" />
            <polygon fill="#181818"
                points="260.06,732.9,250.4257,730.8555,255.1689,733.938,252.0864,738.6812,260.06,732.9"
                style="stroke:#181818;stroke-width:1.0;" />
        </g><!--link
        AC_RS to UC_019-->
        <g id="link_AC_RS_UC_019">
            <path
                d="M99.7,329.95 C118.94,301.21 148.48,263.08 183,239 C210.67,219.7 239.6271,207.954 270.1471,198.914 "
                fill="none" id="AC_RS-to-UC_019" style="stroke:#181818;stroke-width:1.0;" />
            <polygon fill="#181818"
                points="275.9,197.21,266.1346,195.9307,271.1059,198.63,268.4066,203.6013,275.9,197.21"
                style="stroke:#181818;stroke-width:1.0;" />
        </g><!--reverse
        link UC_002 to UC_005-->
        <g id="link_UC_002_UC_005">
            <path d="M429.3316,513.0385 C503.1616,495.1685 609.98,469.32 675.26,453.52 " fill="none"
                id="UC_002-backto-UC_005"
                style="stroke:#181818;stroke-width:1.0;stroke-dasharray:7.0,7.0;" />
            <polygon fill="#181818"
                points="423.5,514.45,433.1884,516.2205,428.3597,513.2738,431.3064,508.445,423.5,514.45"
                style="stroke:#181818;stroke-width:1.0;" />
            <text fill="#000000" font-family="sans-serif" font-size="13" lengthAdjust="spacing"
                textLength="60" x="525" y="472.4951">&#171;extends&#187;</text>
        </g><!--reverse
        link UC_003 to UC_005-->
        <g id="link_UC_003_UC_005">
            <path d="M449.94,441 C514.31,441 592.86,441 652.74,441 " fill="none"
                id="UC_003-backto-UC_005"
                style="stroke:#181818;stroke-width:1.0;stroke-dasharray:7.0,7.0;" />
            <polygon fill="#181818" points="443.94,441,452.94,445,448.94,441,452.94,437,443.94,441"
                style="stroke:#181818;stroke-width:1.0;" />
            <text fill="#000000" font-family="sans-serif" font-size="13" lengthAdjust="spacing"
                textLength="60" x="525" y="437.4951">&#171;extends&#187;</text>
        </g><!--reverse
        link UC_004 to UC_005-->
        <g id="link_UC_004_UC_005">
            <path d="M410.7387,373.7085 C481.8087,388.8285 600.38,414.06 672.01,429.3 " fill="none"
                id="UC_004-backto-UC_005"
                style="stroke:#181818;stroke-width:1.0;stroke-dasharray:7.0,7.0;" />
            <polygon fill="#181818"
                points="404.87,372.46,412.8406,378.2453,409.7605,373.5005,414.5053,370.4204,404.87,372.46"
                style="stroke:#181818;stroke-width:1.0;" />
            <text fill="#000000" font-family="sans-serif" font-size="13" lengthAdjust="spacing"
                textLength="60" x="525" y="395.4951">&#171;extends&#187;</text>
        </g><!--reverse
        link UC_011 to UC_005-->
        <g id="link_UC_011_UC_005">
            <path
                d="M445.3798,692.9285 C464.0798,686.3485 477.23,679.59 493,668 C569.81,611.55 543.97,554.26 617,493 C636.66,476.51 662.44,463.96 684.1,455.32 "
                fill="none" id="UC_011-backto-UC_005"
                style="stroke:#181818;stroke-width:1.0;stroke-dasharray:7.0,7.0;" />
            <polygon fill="#181818"
                points="439.72,694.92,449.5375,695.7059,444.4365,693.2604,446.8821,688.1595,439.72,694.92"
                style="stroke:#181818;stroke-width:1.0;" />
            <text fill="#000000" font-family="sans-serif" font-size="13" lengthAdjust="spacing"
                textLength="60" x="525" y="522.4951">&#171;extends&#187;</text>
        </g><!--link
        UC_005 to UC_006-->
        <g id="link_UC_005_UC_006">
            <path
                d="M774.14,454.85 C795.74,463.22 820.78,475.68 839,493 C859.46,512.46 851,527.25 869,549 C903.25,590.39 914.93,601.01 963,625 C987.69,637.32 1010.9393,644.4648 1036.7493,650.1248 "
                fill="none" id="UC_005-to-UC_006"
                style="stroke:#181818;stroke-width:1.0;stroke-dasharray:7.0,7.0;" />
            <polygon fill="#181818"
                points="1042.61,651.41,1034.6757,645.575,1037.7261,650.339,1032.9621,653.3893,1042.61,651.41"
                style="stroke:#181818;stroke-width:1.0;" />
            <text fill="#000000" font-family="sans-serif" font-size="13" lengthAdjust="spacing"
                textLength="62" x="870" y="545.4951">&#171;includes&#187;</text>
        </g><!--link
        UC_005 to UC_007-->
        <g id="link_UC_005_UC_007">
            <path
                d="M766.71,456.15 C794.88,467.45 834.33,483.24 869,497 C910.73,513.56 920.65,519.08 963,534 C989.19,543.22 1012.5737,550.7507 1037.9737,558.5407 "
                fill="none" id="UC_005-to-UC_007"
                style="stroke:#181818;stroke-width:1.0;stroke-dasharray:7.0,7.0;" />
            <polygon fill="#181818"
                points="1043.71,560.3,1036.2784,553.8369,1038.9298,558.8339,1033.9327,561.4853,1043.71,560.3"
                style="stroke:#181818;stroke-width:1.0;" />
            <text fill="#000000" font-family="sans-serif" font-size="13" lengthAdjust="spacing"
                textLength="62" x="870" y="493.4951">&#171;includes&#187;</text>
        </g><!--link
        UC_005 to UC_008-->
        <g id="link_UC_005_UC_008">
            <path
                d="M787.79,451.57 C812.77,455.82 842.25,460.53 869,464 C905.65,468.75 939.5766,472.3856 976.1966,475.8456 "
                fill="none" id="UC_005-to-UC_008"
                style="stroke:#181818;stroke-width:1.0;stroke-dasharray:7.0,7.0;" />
            <polygon fill="#181818"
                points="982.17,476.41,973.5862,471.5812,977.1922,475.9397,972.8336,479.5457,982.17,476.41"
                style="stroke:#181818;stroke-width:1.0;" />
            <text fill="#000000" font-family="sans-serif" font-size="13" lengthAdjust="spacing"
                textLength="62" x="870" y="460.4951">&#171;includes&#187;</text>
        </g><!--link
        UC_005 to UC_013-->
        <g id="link_UC_005_UC_013">
            <path d="M794.58,432.92 C857.32,425.19 946.455,414.2139 1015.915,405.6539 " fill="none"
                id="UC_005-to-UC_013"
                style="stroke:#181818;stroke-width:1.0;stroke-dasharray:7.0,7.0;" />
            <polygon fill="#181818"
                points="1021.87,404.92,1012.4483,402.0508,1016.9075,405.5316,1013.4268,409.9908,1021.87,404.92"
                style="stroke:#181818;stroke-width:1.0;" />
            <text fill="#000000" font-family="sans-serif" font-size="13" lengthAdjust="spacing"
                textLength="62" x="870" y="413.4951">&#171;includes&#187;</text>
        </g><!--link
        UC_005 to UC_016-->
        <g id="link_UC_005_UC_016">
            <path
                d="M765.63,425.68 C811.48,406.69 892.56,373.67 963,348 C983.92,340.38 1000.9774,334.4758 1022.2074,327.4058 "
                fill="none" id="UC_005-to-UC_016"
                style="stroke:#181818;stroke-width:1.0;stroke-dasharray:7.0,7.0;" />
            <polygon fill="#181818"
                points="1027.9,325.51,1018.0972,324.5585,1023.1561,327.0898,1020.6249,332.1487,1027.9,325.51"
                style="stroke:#181818;stroke-width:1.0;" />
            <text fill="#000000" font-family="sans-serif" font-size="13" lengthAdjust="spacing"
                textLength="62" x="870" y="356.4951">&#171;includes&#187;</text>
        </g><!--link
        UC_005 to UC_017-->
        <g id="link_UC_005_UC_017">
            <path
                d="M773.21,426.91 C794.96,418.3 820.42,405.53 839,388 C858.97,369.16 851.92,355.5 869,334 C904.04,289.9 913.4,275.69 963,249 C985.01,237.16 1005.0257,230.2805 1028.8957,224.5505 "
                fill="none" id="UC_005-to-UC_017"
                style="stroke:#181818;stroke-width:1.0;stroke-dasharray:7.0,7.0;" />
            <polygon fill="#181818"
                points="1034.73,223.15,1025.0449,221.3613,1029.8681,224.3171,1026.9123,229.1403,1034.73,223.15"
                style="stroke:#181818;stroke-width:1.0;" />
            <text fill="#000000" font-family="sans-serif" font-size="13" lengthAdjust="spacing"
                textLength="62" x="870" y="265.4951">&#171;includes&#187;</text>
        </g><!--reverse
        link UC_005 to UC_012-->
        <g id="link_UC_005_UC_012">
            <path d="M728,417.07 C728,402.29 728,387.22 728,371.17 " fill="none"
                id="UC_005-backto-UC_012"
                style="stroke:#181818;stroke-width:1.0;stroke-dasharray:7.0,7.0;" />
            <polygon fill="#181818" points="728,423.07,732,414.07,728,418.07,724,414.07,728,423.07"
                style="stroke:#181818;stroke-width:1.0;" />
            <text fill="#000000" font-family="sans-serif" font-size="13" lengthAdjust="spacing"
                textLength="60" x="686" y="402.7451">&#171;extends&#187;</text>
        </g><!--link
        UC_014 to UC_005-->
        <g id="link_UC_014_UC_005">
            <path d="M728,510.92 C728,494.06 728,479.14 728,464.6 " fill="none"
                id="UC_014-to-UC_005"
                style="stroke:#181818;stroke-width:1.0;stroke-dasharray:7.0,7.0;" />
            <polygon fill="#181818" points="728,458.6,724,467.6,728,463.6,732,467.6,728,458.6"
                style="stroke:#181818;stroke-width:1.0;" />
            <text fill="#000000" font-family="sans-serif" font-size="13" lengthAdjust="spacing"
                textLength="60" x="686" y="490.2451">&#171;extends&#187;</text>
        </g><!--reverse
        link UC_019 to UC_015-->
        <g id="link_UC_019_UC_015">
            <path d="M350,151.78 C350,136.42 350,122.08 350,105.29 " fill="none"
                id="UC_019-backto-UC_015"
                style="stroke:#181818;stroke-width:1.0;stroke-dasharray:7.0,7.0;" />
            <polygon fill="#181818" points="350,157.78,354,148.78,350,152.78,346,148.78,350,157.78"
                style="stroke:#181818;stroke-width:1.0;" />
            <text fill="#000000" font-family="sans-serif" font-size="13" lengthAdjust="spacing"
                textLength="60" x="308" y="136.9951">&#171;extends&#187;</text>
        </g><!--link
        UC_018 to UC_019-->
        <g id="link_UC_018_UC_019">
            <path d="M350,257 C350,240.71 350,225.9 350,210.17 " fill="none" id="UC_018-to-UC_019"
                style="stroke:#181818;stroke-width:1.0;stroke-dasharray:7.0,7.0;" />
            <polygon fill="#181818" points="350,204.17,346,213.17,350,209.17,354,213.17,350,204.17"
                style="stroke:#181818;stroke-width:1.0;" />
            <text fill="#000000" font-family="sans-serif" font-size="13" lengthAdjust="spacing"
                textLength="60" x="308" y="235.9951">&#171;extends&#187;</text>
        </g><!--link
        UC_019 to UC_005-->
        <g id="link_UC_019_UC_005">
            <path
                d="M413.82,199.19 C439.83,208.55 469.37,221.69 493,239 C562.5,289.91 549.09,334.98 617,388 C637.89,404.31 659.0568,415.0237 680.9268,424.0837 "
                fill="none" id="UC_019-to-UC_005"
                style="stroke:#181818;stroke-width:1.0;stroke-dasharray:7.0,7.0;" />
            <polygon fill="#181818"
                points="686.47,426.38,679.6861,419.24,681.8507,424.4664,676.6243,426.6309,686.47,426.38"
                style="stroke:#181818;stroke-width:1.0;" />
            <text fill="#000000" font-family="sans-serif" font-size="13" lengthAdjust="spacing"
                textLength="62" x="524" y="263.4951">&#171;includes&#187;</text>
        </g><!--SRC=[bPIzRjim4CTtFSKXkmqhjXEx20mKAOeM1T8YHZ8K0W9MP2FM52bGb52hxIFa0H9F7Zq46JgdY-ptAYM7-h85jvxCq-_-T-HzCF9LWH8WwQsd05D9N4K5jopaAY7XQAeYJBWw0XJ2w_ERgR5V42aIJs0UgVGPmZfrKM2NxT3brBAoQ8ZVCg99uaxVJw43MKJwZQUF4B1qoUT7yCC2_Oj2ug9GarU1I8JawqN6S0IIp6AQK3LtU4mWPYXK-ek_TO_oS5VdDxsUNPUvddkCu7GPQye4spmvF11OvyFJPH9Nd8__ntcM_iOLttxTzorbIegwPmaFwl1dyKMYX1HeHNPO9zE7MB-qvXJvhY3QmK_g-0T9C5KwZPKk358qL7IcNp02J1IYRDV_jEx_9iSWsDmJxAyNAe8O4fFiodTuQEguMubHwnrrK-7qaMsUm2S9TJYErmiV5PrW1CQj0c4W65dVyVJPzNGvJ7OlWaqXk_SlPOMygZMrKg7HLHyJZjPtbNf1WY29TL8wfTBhkFq2fXWE5sPaYEirtz1kDDKdALnFzsokaOsSSBE_ZfwFcV2rHhhSt6TNQVIRtUYtQoOsVt8HB08Xe_mkAqz083TFhXQET554CMNPXqPYm_O6hbIZefvNQaRqPTEbujJL7LEgdRIg-IYO5xDVEZJQz5tn561UeZPwbSJRk_AbVgizjnrRlomhNtdGOPsVa-sIpDSRT6HXo2ovOM9sqTPWpiUDSxzn7XH1Z6NSCEXMVZ54nc9R9X5Z6LlMTdL0D-gQqF0ApixqpY0SXvF9Bj0_10mE0BRT00e26ucJdA3SPRhXgne5SNgG61qYxFv1uc0UzauUrdQWeSjC8iCzxs4Fe2lRW2qnB2NiyJw9KIcn7nX3jnwYakPV]-->
    </g>
</svg>